<svg id="Layer_1" data-name="Layer 1" xmlns="http://www.w3.org/2000/svg" viewBox="0 0 1920 1080"><defs><style>.cls-1{fill:#f5e8d7;}.cls-2{fill:#946b37;}.cls-3{fill:#dec59c;}.cls-3,.cls-4{stroke:#dec59c;stroke-miterlimit:10;}.cls-4{fill:#c2a67d;}.cls-5{fill:#e8d8c2;}.cls-6{fill:#fff;}.cls-7{fill:#f0d6cc;}.cls-8{fill:#f0d6cd;}</style></defs><rect class="cls-1" width="1920" height="1080"/><path class="cls-2" d="M1403,331c.36,8.24-4.49,15.86-11.37,20.23a24,24,0,0,1-11.33,3.83c-4.47.25-8.51-1.11-12.47-3.16-4.6-2.39-8.91-5.3-13.77-7.16a23,23,0,0,0-14-.93c-9,2.33-15.51,10-20.19,17.55a103.06,103.06,0,0,0-6.53,12.88q-3.74,8.59-7.23,17.29-6.93,17.28-12.79,35c-3.51,10.54-6.81,21.23-12,31.1a80.18,80.18,0,0,1-9.14,13.66c-3.61,4.36-7.16,8.68-9.26,14-4.14,10.45-2.17,22.39,1.16,32.77a137.61,137.61,0,0,0,14.85,31.46q2.28,3.57,4.76,7a2.57,2.57,0,0,0,3.42.9,2.51,2.51,0,0,0,.9-3.42,135.34,135.34,0,0,1-16.5-30c-3.89-9.93-7.43-21.21-5.34-32a32.08,32.08,0,0,1,7-14c3.5-4.36,7.09-8.57,10-13.36,5.77-9.51,9.49-20.1,13-30.61,3.87-11.62,7.84-23.18,12.27-34.6q3.28-8.48,6.82-16.84c2.07-4.91,4.13-9.86,6.65-14.56,3.9-7.25,9.24-15.27,17.13-18.54a17.67,17.67,0,0,1,12.49-.32c4.69,1.54,8.82,4.42,13.14,6.74s8.82,4.08,13.75,4.24a27.83,27.83,0,0,0,12.91-2.94c7.78-3.76,14.22-11.11,16.13-19.62a24.28,24.28,0,0,0,.6-6.53c-.14-3.2-5.14-3.22-5,0Z"/><path class="cls-2" d="M1350.1,408.42a503.27,503.27,0,0,1-30.94,55.92c-5.38,8.4-11.48,16.48-15.92,25.45s-6.58,18.43-4.64,28.29c2.12,10.82,8.43,20.35,15.23,28.81a2.53,2.53,0,0,0,3.54,0,2.55,2.55,0,0,0,0-3.53c-5.69-7.07-10.9-15-13.29-23.79a34.1,34.1,0,0,1-1-13.37,42.94,42.94,0,0,1,3.94-12.74c4.15-8.8,10.06-16.67,15.32-24.82q8.42-13,16-26.57,8.58-15.27,16.07-31.12a2.57,2.57,0,0,0-.89-3.42,2.53,2.53,0,0,0-3.43.89Z"/><path class="cls-2" d="M1461.4,328.93c-3.26,6.54-6.24,14-5.84,21.48a17.12,17.12,0,0,0,3.41,9.78c2.74,3.5,6.77,5.15,10.89,6.47a63.68,63.68,0,0,1,20.82,11A84.23,84.23,0,0,1,1507,395.4c10.61,15.37,16.64,33.24,22.39,50.84,6.23,19.06,12.44,38.17,16.71,57.78,4.18,19.22,6.39,39,4.4,58.64q-.37,3.58-.93,7.14a2.59,2.59,0,0,0,1.74,3.08,2.53,2.53,0,0,0,3.08-1.75c3.12-19.72,1.93-39.69-1.63-59.26s-9.46-38.91-15.61-57.94c-5.84-18.07-11.44-36.56-20.89-53.15-8.08-14.19-19.47-27.19-34.21-34.64a85.94,85.94,0,0,0-11.86-4.63c-3.45-1.14-6.63-2.74-8.36-6.05-3-5.74-.55-13.58,1.76-19.33.64-1.59,1.37-3.14,2.13-4.67,1.43-2.88-2.88-5.41-4.32-2.53Z"/><path class="cls-2" d="M1474.12,437.11a448.64,448.64,0,0,1,32.81,80.66q3.49,11.75,6.34,23.68c.75,3.12,5.58,1.8,4.82-1.33A455.46,455.46,0,0,0,1489.44,457q-5.19-11.36-11-22.42c-1.5-2.85-5.81-.32-4.32,2.53Z"/><path class="cls-2" d="M1483.73,513.9a122.72,122.72,0,0,1,26.19,26.58,2.57,2.57,0,0,0,3.42.89,2.52,2.52,0,0,0,.9-3.42,130.43,130.43,0,0,0-28-28.36,2.51,2.51,0,0,0-3.42.89,2.56,2.56,0,0,0,.89,3.42Z"/><path class="cls-2" d="M1473.27,533.79c10.23,2.69,17.85,10.65,25.89,17a170,170,0,0,0,28.52,18.39,175,175,0,0,0,17.85,7.86,2.51,2.51,0,0,0,3.07-1.75,2.55,2.55,0,0,0-1.75-3.07,166.16,166.16,0,0,1-30-15,160.53,160.53,0,0,1-13.82-9.74c-4.22-3.33-8.23-6.91-12.5-10.18-4.8-3.68-10-6.86-15.94-8.41-3.11-.82-4.44,4-1.33,4.82Z"/><ellipse class="cls-3" cx="1449.01" cy="216.69" rx="168.9" ry="130.54"/><ellipse class="cls-4" cx="1460.45" cy="204.46" rx="67.73" ry="59.93"/><path class="cls-5" d="M1320.14,184.71c4.26.62,8.54.5,12.82.81,5-20.93,11-26.72,27.09-40.21-2.7-3.37-5.35-6.78-8.1-10.11C1331.32,155.17,1328.77,156.47,1320.14,184.71Z"/><path class="cls-5" d="M1524.43,246.92c-2.9-.56-5.81-1-8.72-1.55-17.2,17.75-18.55,17.36-42.37,21.92-.28,2.49-.52,5-.91,7.44C1501.58,268.32,1502.59,267.14,1524.43,246.92Z"/><path class="cls-6" d="M1340.21,351.6q7.24,32.86,12,66.21c2.65,18.37,5.63,39,19,53,11,11.43,29.8,18.34,44.37,9.5,8.06-4.89,12.86-13.28,17.73-21a227.94,227.94,0,0,1,16.84-23.39,230.49,230.49,0,0,1,41.94-39.67c1.93-1.41,3.88-2.78,5.85-4.13a2.56,2.56,0,0,0,.89-3.42,2.52,2.52,0,0,0-3.42-.89A235,235,0,0,0,1434.83,448c-2.69,3.87-5.21,7.83-7.7,11.82a75.58,75.58,0,0,1-7.58,10.68,26.43,26.43,0,0,1-9.66,7.15,25,25,0,0,1-10.56,1.66c-7.5-.37-14.89-3.71-20.66-8.42-14.32-11.68-18.16-31.22-20.79-48.54-1.61-10.54-3.1-21.1-4.9-31.61q-2.79-16.22-6.19-32.32-.86-4.08-1.76-8.16c-.7-3.14-5.52-1.81-4.82,1.33Z"/><path class="cls-6" d="M1500,392.55l5.63-4.87-4.18-1.11a23.37,23.37,0,0,0,4.06,8,21.39,21.39,0,0,0,2.76,3,12.63,12.63,0,0,1,1.37,1.26c.17.19.18.25.29.38s0,.49,0,.19,0,.09-.1.15c.2-.25-.45.39-.4.35a6.65,6.65,0,0,1-1.13.61,24.57,24.57,0,0,1-3.13,1,57.66,57.66,0,0,0-7.31,2.69,59.71,59.71,0,0,0-23.78,19.3,56.89,56.89,0,0,0-8.06,15.47l4.91.67v-2.07c0-3.22-5-3.22-5,0v2.07c0,2.9,4,3.28,4.91.66a54.29,54.29,0,0,1,17.56-24.58,52.58,52.58,0,0,1,12.74-7.52c2.35-1,4.78-1.65,7.21-2.38s4.94-1.88,6.06-4.19a5.25,5.25,0,0,0-.21-4.93,17.78,17.78,0,0,0-3.32-3.45,18.06,18.06,0,0,1-4.64-7.88,2.53,2.53,0,0,0-4.18-1.1l-5.62,4.87a2.53,2.53,0,0,0,0,3.54,2.55,2.55,0,0,0,3.53,0Z"/><path class="cls-6" d="M1468.13,440l9.06,52.12,2.59,14.93a2.53,2.53,0,0,0,3.08,1.75,2.56,2.56,0,0,0,1.74-3.08l-9-52.12-2.6-14.93a2.52,2.52,0,0,0-3.07-1.75,2.56,2.56,0,0,0-1.75,3.08Z"/><path class="cls-6" d="M1343.1,461.18c3.83,11.57,7,23.24,8.48,35.35a163.74,163.74,0,0,1,.37,36.36,156,156,0,0,1-3.36,19.92c-.73,3.13,4.09,4.47,4.82,1.33a166.27,166.27,0,0,0,.36-74c-1.54-6.87-3.64-13.57-5.84-20.25-1-3-5.84-1.73-4.83,1.33Z"/><path class="cls-6" d="M1398.49,485.14a478.31,478.31,0,0,1,5.75,49.91q.45,7.25.68,14.5c.11,3.21,5.11,3.23,5,0a491.28,491.28,0,0,0-4.4-51.39q-1-7.19-2.21-14.35a2.5,2.5,0,0,0-4.82,1.33Z"/><path class="cls-6" d="M1342.08,348.9c3.22,0,3.23-5,0-5s-3.22,5,0,5Z"/><path class="cls-6" d="M1312.26,511.13l27.5-9.34c3-1,1.73-5.86-1.33-4.82l-27.5,9.34c-3,1-1.72,5.86,1.33,4.82Z"/><path class="cls-6" d="M1316.28,531.16a82.68,82.68,0,0,0,24.19-6.27,2.51,2.51,0,0,0,.9-3.42,2.56,2.56,0,0,0-3.42-.9,75,75,0,0,1-21.67,5.59,2.57,2.57,0,0,0-2.5,2.5,2.51,2.51,0,0,0,2.5,2.5Z"/><path class="cls-6" d="M1285,567.05a108.46,108.46,0,0,1,38.12-18.74,110.17,110.17,0,0,1,11.93-2.45,2.51,2.51,0,0,0,1.75-3.07,2.57,2.57,0,0,0-3.08-1.75,112,112,0,0,0-41,14.72,110,110,0,0,0-10.25,7,2.59,2.59,0,0,0-.9,3.42,2.51,2.51,0,0,0,3.42.9Z"/><path class="cls-6" d="M1258,522.1q-28.07,4.44-56,9.69-8,1.51-16,3.08a2.5,2.5,0,1,0,1.33,4.82q27.87-5.48,55.9-10.15,8.05-1.35,16.1-2.62a2.53,2.53,0,0,0,1.75-3.07,2.57,2.57,0,0,0-3.08-1.75Z"/><path class="cls-6" d="M1264.79,539.89q-31.5,7.53-62.81,15.78t-62.43,17.23q-17.5,5.05-34.94,10.34c-3.08.93-1.77,5.75,1.32,4.82q31-9.39,62.2-18t62.6-16.6q17.65-4.47,35.39-8.69c3.13-.75,1.8-5.57-1.33-4.83Z"/><path class="cls-6" d="M1284.22,561l-68.77,28.43c-21.79,9-43.58,18.05-64.75,28.45-11.83,5.81-23.46,12-34.73,18.9-2.74,1.67-.23,6,2.53,4.32,20-12.13,41-22.31,62.37-31.69,21.87-9.59,44-18.52,66.11-27.64l38.57-16a2.57,2.57,0,0,0,1.74-3.07,2.51,2.51,0,0,0-3.07-1.75Z"/><path class="cls-6" d="M1200.37,625.08l3.28,31.91a2.57,2.57,0,0,0,2.5,2.5,2.52,2.52,0,0,0,2.5-2.5l-3.28-31.91a2.57,2.57,0,0,0-2.5-2.5,2.51,2.51,0,0,0-2.5,2.5Z"/><path class="cls-6" d="M1236.88,609.06a331.12,331.12,0,0,0,2.55,64q1.21,9,2.94,17.83a2.52,2.52,0,0,0,3.07,1.75,2.55,2.55,0,0,0,1.75-3.08,324.18,324.18,0,0,1-5.87-62.71q0-8.91.56-17.82c.18-3.21-4.82-3.2-5,0Z"/><path class="cls-6" d="M1275.17,588.64a268.27,268.27,0,0,0-3.87,79.67q1.15,11.34,3.26,22.56a2.53,2.53,0,0,0,3.07,1.75,2.56,2.56,0,0,0,1.75-3.08,264,264,0,0,1-2.79-77.9c.82-7.27,2-14.5,3.4-21.67a2.56,2.56,0,0,0-1.74-3.08,2.53,2.53,0,0,0-3.08,1.75Z"/><path class="cls-6" d="M1307.86,582.28c-3.65,29.3-5.36,59.16-.43,88.43a173.38,173.38,0,0,0,5.87,24.3c1,3,5.81,1.75,4.82-1.33-9-28-9.94-57.67-7.77-86.77.62-8.23,1.49-16.44,2.51-24.63a2.51,2.51,0,0,0-2.5-2.5,2.56,2.56,0,0,0-2.5,2.5Z"/><path class="cls-6" d="M1334.09,577.11a245.38,245.38,0,0,0,1.17,52.25c.66,5,1.45,10,2.4,15a2.5,2.5,0,1,0,4.82-1.33,242,242,0,0,1-4.19-51.18c.12-4.92.39-9.85.8-14.76a2.51,2.51,0,0,0-2.5-2.5,2.56,2.56,0,0,0-2.5,2.5Z"/><path class="cls-6" d="M1356.18,581.09a141.56,141.56,0,0,0,9.51,43.31,2.58,2.58,0,0,0,3.08,1.74,2.51,2.51,0,0,0,1.74-3.07,137.37,137.37,0,0,1-9.33-42c-.19-3.2-5.19-3.22-5,0Z"/><path class="cls-6" d="M1403.29,598.21c2.92-19.46,16.63-34.54,31.26-46.63,4.4-3.65,9-7.11,13.51-10.56a2.58,2.58,0,0,0,.9-3.42,2.52,2.52,0,0,0-3.42-.9c-16.27,12.34-33.33,25.38-42.17,44.37a57.57,57.57,0,0,0-4.9,15.81,2.58,2.58,0,0,0,1.75,3.08,2.52,2.52,0,0,0,3.07-1.75Z"/><path class="cls-6" d="M1427.44,620.31c.86-19.74,10.6-38.59,25.59-51.33a68.46,68.46,0,0,1,14-9.17,2.5,2.5,0,1,0-2.52-4.31c-19,9.34-33.31,27.12-39.22,47.32a74.08,74.08,0,0,0-2.88,17.49c-.14,3.22,4.86,3.21,5,0Z"/><path class="cls-6" d="M1434.36,661.76c.16-14.4,6.65-27.87,13.63-40.14A194.54,194.54,0,0,1,1472.17,588,199.38,199.38,0,0,1,1489,571.39a2.5,2.5,0,1,0-3.53-3.53,200.38,200.38,0,0,0-29.12,31.78,175.07,175.07,0,0,0-21.55,37.52,67.47,67.47,0,0,0-5.4,24.6c0,3.22,5,3.22,5,0Z"/><path class="cls-6" d="M1453.19,690.33c-.81-7.64,2.17-14.86,5.3-21.66s6.49-13.46,10-20a344.11,344.11,0,0,1,24-38.06q7.38-10.17,15.51-19.75a2.56,2.56,0,0,0,0-3.54,2.52,2.52,0,0,0-3.53,0,348.76,348.76,0,0,0-27.42,37,343.71,343.71,0,0,0-22.19,40.18c-3.76,8.05-7.71,16.69-6.74,25.81a2.57,2.57,0,0,0,2.5,2.5,2.52,2.52,0,0,0,2.5-2.5Z"/><path class="cls-6" d="M1471.49,701.81c25.37-8.91,40.92-32.51,55.46-53.65l15.68-22.8a2.54,2.54,0,0,0-.9-3.42,2.56,2.56,0,0,0-3.42.9c-8.45,12.29-16.72,24.72-25.45,36.81-7.22,10-15.14,19.79-24.91,27.44a63,63,0,0,1-17.79,9.9,2.56,2.56,0,0,0-1.75,3.07,2.53,2.53,0,0,0,3.08,1.75Z"/><path class="cls-6" d="M1481.43,729.31a118.82,118.82,0,0,0,51.5-20.54,127.32,127.32,0,0,0,37.72-41.22,116.41,116.41,0,0,0,11.73-29.2c.78-3.12-4-4.46-4.82-1.33a115,115,0,0,1-25,47.41,122.57,122.57,0,0,1-43.31,31.88,111.36,111.36,0,0,1-29.19,8.18,2.52,2.52,0,0,0-1.74,3.08,2.56,2.56,0,0,0,3.07,1.74Z"/><path class="cls-6" d="M1487.75,763c23.46,2.66,43.71-13.61,60.34-28,16.44-14.21,32.93-29.09,44.79-47.49a91.14,91.14,0,0,0,13.57-33.42,2.57,2.57,0,0,0-1.75-3.07,2.52,2.52,0,0,0-3.07,1.74c-3.66,20.83-15.89,38.51-30.17,53.6-7.35,7.76-15.27,15-23.32,22-8.35,7.29-16.8,14.58-26.27,20.38-10.3,6.31-21.88,10.63-34.12,9.25a2.52,2.52,0,0,0-2.5,2.5,2.55,2.55,0,0,0,2.5,2.5Z"/><path class="cls-6" d="M1365.42,650.07a46.19,46.19,0,0,0,35.38,14.47c3.21-.14,3.22-5.14,0-5a41.28,41.28,0,0,1-31.84-13c-2.2-2.36-5.73,1.18-3.54,3.53Z"/><path class="cls-6" d="M1351.48,670.19c6.54,14.78,20.25,26,35.78,30.21a52.36,52.36,0,0,0,13.52,1.8c3.22,0,3.23-5,0-5-14.88,0-29.17-7.31-38.5-18.8a47.48,47.48,0,0,1-6.48-10.73,2.51,2.51,0,0,0-3.42-.9,2.56,2.56,0,0,0-.9,3.42Z"/><path class="cls-6" d="M1339.19,694.1a103.14,103.14,0,0,0,29.75,27,105.73,105.73,0,0,0,37.47,13.79,100.19,100.19,0,0,0,22.82,1.12,2.55,2.55,0,0,0,2.5-2.5,2.53,2.53,0,0,0-2.5-2.5,97.87,97.87,0,0,1-37.85-5,100.83,100.83,0,0,1-33.1-18.68,95.21,95.21,0,0,1-14.77-15.72,2.58,2.58,0,0,0-3.42-.9,2.52,2.52,0,0,0-.9,3.42Z"/><path class="cls-6" d="M1292.93,712.13a195.55,195.55,0,0,0,45.54,41.7,146.82,146.82,0,0,0,60.32,22.67,122.87,122.87,0,0,0,37-.68,2.51,2.51,0,0,0,1.74-3.07,2.55,2.55,0,0,0-3.07-1.75c-21.08,3.64-42.91.94-63-6.23-19.14-6.86-36.62-18-51.74-31.52a207.35,207.35,0,0,1-23.3-24.66,2.53,2.53,0,0,0-3.54,0,2.56,2.56,0,0,0,0,3.54Z"/><path class="cls-6" d="M1254.8,711.47A205.87,205.87,0,0,0,1280.35,748a217.75,217.75,0,0,0,32.53,30.25,220.85,220.85,0,0,0,79.66,38.22,205.69,205.69,0,0,0,44.17,6c1.81.05,3.62.07,5.44.07,3.22,0,3.22-5,0-5a198.49,198.49,0,0,1-43.18-4.73,211,211,0,0,1-41.09-13.65,220.07,220.07,0,0,1-37.79-21.8,212.9,212.9,0,0,1-32.58-28.88,201.14,201.14,0,0,1-25.72-34.85c-.91-1.57-1.8-3.16-2.67-4.75-1.54-2.83-5.86-.31-4.32,2.52Z"/><path class="cls-6" d="M1211.47,723.88c3.73,19,15.78,34.89,28.8,48.61a327.63,327.63,0,0,0,42.28,37.27A338.51,338.51,0,0,0,1330,839.24a344,344,0,0,0,52,21.51,331.84,331.84,0,0,0,54.61,12.51q3.57.51,7.14.94a2.52,2.52,0,0,0,2.5-2.5,2.55,2.55,0,0,0-2.5-2.5A326.83,326.83,0,0,1,1390,858,334.62,334.62,0,0,1,1338.72,838a339.84,339.84,0,0,1-47.54-28.16,326.55,326.55,0,0,1-42-35.47c-12.89-12.87-25.64-27.35-31.14-45.08a65.7,65.7,0,0,1-1.7-6.77,2.52,2.52,0,0,0-3.08-1.75,2.56,2.56,0,0,0-1.74,3.08Z"/><path class="cls-6" d="M1565.27,584.2a175.76,175.76,0,0,0,67.4,37.07,169.75,169.75,0,0,0,21.26,4.69,2.57,2.57,0,0,0,3.07-1.74,2.52,2.52,0,0,0-1.74-3.08,171.07,171.07,0,0,1-69.77-27.5,166.09,166.09,0,0,1-16.69-13c-2.4-2.12-6,1.4-3.53,3.54Z"/><path class="cls-6" d="M1571.14,557.79c10.12,12.82,23.15,23.13,37.32,31.13,15.43,8.7,32.24,14.69,49.32,19.24,10.11,2.69,20.35,4.9,30.61,6.93a2.55,2.55,0,0,0,3.07-1.74,2.53,2.53,0,0,0-1.74-3.08c-17.88-3.55-35.73-7.61-52.88-13.87-15.32-5.6-30.18-13.09-43-23.19a114.65,114.65,0,0,1-19.12-19,2.5,2.5,0,0,0-3.53,0,2.55,2.55,0,0,0,0,3.53Z"/><path class="cls-6" d="M1573.85,526.75a269.39,269.39,0,0,0,56.21,35.57,273,273,0,0,0,63,20.8,270,270,0,0,0,37.26,4.74c3.21.18,3.2-4.82,0-5a264.08,264.08,0,0,1-63.91-11.7,267.27,267.27,0,0,1-59.23-26.85,260.08,260.08,0,0,1-29.75-21.09,2.56,2.56,0,0,0-3.54,0,2.51,2.51,0,0,0,0,3.53Z"/><path class="cls-6" d="M1599.62,507.52a356.39,356.39,0,0,0,41.4,23.73,361.69,361.69,0,0,0,44.14,18.06q12.79,4.28,25.9,7.58c3.12.78,4.45-4,1.33-4.82a358.3,358.3,0,0,1-45-14.56A354.54,354.54,0,0,1,1625,517.2q-11.67-6.57-22.83-14c-2.69-1.78-5.19,2.54-2.52,4.32Z"/><path class="cls-6" d="M1625.55,490.59c11.25,2.15,21.33,8.19,31.67,12.85q16.3,7.35,33.28,13.1,9.49,3.19,19.16,5.87c3.1.86,4.43-4,1.33-4.82q-17.06-4.73-33.57-11.09c-11-4.23-21.53-9.23-32.17-14.21-5.9-2.77-12-5.3-18.37-6.52a2.56,2.56,0,0,0-3.08,1.74,2.52,2.52,0,0,0,1.75,3.08Z"/><path class="cls-6" d="M1661.36,472,1711,488.54c3.06,1,4.37-3.81,1.33-4.82l-49.63-16.58c-3.06-1-4.37,3.81-1.33,4.83Z"/><path class="cls-6" d="M1050.61,724.74a490.52,490.52,0,0,0,38.92-49.08q5-7.23,9.76-14.64c1.74-2.71-2.59-5.22-4.32-2.52a479.83,479.83,0,0,1-36.34,49.44q-5.66,6.73-11.55,13.27c-2.15,2.38,1.37,5.93,3.53,3.53Z"/><path class="cls-6" d="M1054.05,765.75c14-6.56,24.61-18.16,33.69-30.36,4.87-6.54,9.36-13.34,13.93-20.08q7.93-11.76,15.88-23.5c5.49-8.17,10.84-16.48,14.72-25.56a2.58,2.58,0,0,0-.9-3.42,2.52,2.52,0,0,0-3.42.89,141.09,141.09,0,0,1-12.68,22.51c-5.07,7.66-10.27,15.23-15.41,22.84-8.79,13-17.21,26.57-28.28,37.79a70.42,70.42,0,0,1-20,14.57,2.53,2.53,0,0,0-.9,3.42,2.57,2.57,0,0,0,3.42.9Z"/><path class="cls-6" d="M1056.65,807.44c5.6-1.56,10.58-4.61,15.21-8.06,4.34-3.25,8.53-6.7,12.62-10.25a257.09,257.09,0,0,0,22.88-22.5,260.93,260.93,0,0,0,51.52-86.06,2.5,2.5,0,1,0-4.82-1.33,256.88,256.88,0,0,1-69.46,103.12q-6.49,5.86-13.39,11.26c-4.8,3.76-10,7.34-15.89,9-3.09.87-1.78,5.69,1.33,4.82Z"/><path class="cls-6" d="M1101.21,820.42a149.93,149.93,0,0,0,38-31.35A155.43,155.43,0,0,0,1165.4,747a146.27,146.27,0,0,0,8.24-26.6,2.56,2.56,0,0,0-1.75-3.07,2.52,2.52,0,0,0-3.07,1.75,145.89,145.89,0,0,1-17.43,44.75,149.41,149.41,0,0,1-30.7,36.7,141.37,141.37,0,0,1-22,15.62c-2.79,1.6-.28,5.93,2.52,4.32Z"/><path class="cls-6" d="M1157.63,816.87a110.88,110.88,0,0,0,21.68-37.42,107.45,107.45,0,0,0,3.28-11.8c.68-3.14-4.14-4.48-4.83-1.33a105.12,105.12,0,0,1-23.67,47,2.57,2.57,0,0,0,0,3.54,2.53,2.53,0,0,0,3.54,0Z"/><path class="cls-6" d="M1819.49,435.73q32.13,1,64.24-1.18,9.13-.63,18.23-1.51a2.57,2.57,0,0,0,2.5-2.5,2.51,2.51,0,0,0-2.5-2.5q-32,3.1-64.18,3-9.15,0-18.29-.32c-3.22-.1-3.22,4.9,0,5Z"/><path class="cls-6" d="M1790.88,464.92l91.8,1.42,26,.4c3.22.05,3.22-4.95,0-5l-91.8-1.42-25.95-.4c-3.22-.05-3.22,4.95,0,5Z"/><path class="cls-6" d="M1758.89,495.83c20.08-2.48,40.36-1.63,60.47-.06s40.37,3.87,60.64,4.25a230.39,230.39,0,0,0,33.93-1.66,2.58,2.58,0,0,0,2.5-2.5,2.51,2.51,0,0,0-2.5-2.5c-20.06,2.6-40.33,1.83-60.44.29s-40.37-3.87-60.64-4.32a234.9,234.9,0,0,0-34,1.5,2.57,2.57,0,0,0-2.5,2.5,2.51,2.51,0,0,0,2.5,2.5Z"/><path class="cls-6" d="M1779.12,528.52h116.06c3.22,0,3.22-5,0-5H1779.12c-3.22,0-3.23,5,0,5Z"/><path class="cls-6" d="M1809.41,565l70.86,1.59,20,.45c3.22.08,3.22-4.92,0-5l-70.86-1.59-20-.45c-3.22-.07-3.22,4.93,0,5Z"/><path class="cls-6" d="M1751.05,631.32c10.25-12.55,24-22.45,39.69-26.87a61.05,61.05,0,0,1,44.78,4.38,52,52,0,0,1,18.85,16.48,2.56,2.56,0,0,0,3.42.9,2.52,2.52,0,0,0,.89-3.42c-9.26-13.59-24.43-22.36-40.57-24.9-17-2.67-34.28,1.64-48.83,10.69a88.91,88.91,0,0,0-21.77,19.21,2.57,2.57,0,0,0,0,3.53,2.53,2.53,0,0,0,3.54,0Z"/><path class="cls-6" d="M1774.09,656.78a45.79,45.79,0,0,1,21.38-18.56,45.26,45.26,0,0,1,45.11,6.3,2.57,2.57,0,0,0,3.53,0,2.5,2.5,0,0,0,0-3.53,50.89,50.89,0,0,0-32.22-11.19,50.37,50.37,0,0,0-42.12,24.45c-1.65,2.77,2.67,5.29,4.32,2.53Z"/><path class="cls-6" d="M1797.16,684c8.83-9,23.89-9.51,34.27-2.86a23.39,23.39,0,0,1,7.21,7.24c1.7,2.72,6,.22,4.31-2.52-7.88-12.6-25.2-17.4-38.86-12.16a28.91,28.91,0,0,0-10.47,6.77c-2.24,2.3,1.29,5.84,3.54,3.53Z"/><path class="cls-6" d="M1632.77,668.4h87.47c3.22,0,3.23-5,0-5h-87.47c-3.21,0-3.22,5,0,5Z"/><path class="cls-6" d="M1624.37,705.3l90.64,1.89,25.41.53c3.21.06,3.21-4.94,0-5l-90.65-1.89-25.4-.53c-3.22-.07-3.22,4.93,0,5Z"/><path class="cls-6" d="M1579,744.14q44.61-.24,89.24.58t89.19,2.7q25.15,1.07,50.3,2.47c3.21.18,3.2-4.83,0-5q-44.55-2.49-89.16-3.91t-89.22-1.77q-25.17-.21-50.35-.07c-3.22,0-3.23,5,0,5Z"/><path class="cls-6" d="M1531.85,784.78l123.71.85,123.09.84,69.43.48c3.21,0,3.22-5,0-5l-123.72-.85-123.08-.84-69.43-.48c-3.22,0-3.22,5,0,5Z"/><path class="cls-6" d="M1577.28,844.15q41.1-1.35,82.23-1.22,40.88.15,81.72,1.76,23.16.93,46.3,2.32c3.21.19,3.2-4.81,0-5q-41.05-2.47-82.17-3.45-40.86-1-81.74-.46-23.17.28-46.34,1c-3.21.11-3.22,5.11,0,5Z"/><path class="cls-6" d="M1610.91,890.77q29.85-.75,59.72.09t59.63,3.29q16.8,1.38,33.55,3.27a2.52,2.52,0,0,0,2.5-2.5,2.56,2.56,0,0,0-2.5-2.5q-29.68-3.34-59.51-5.1t-59.69-1.89q-16.86-.09-33.7.34c-3.22.08-3.23,5.08,0,5Z"/><path class="cls-6" d="M1473.91,814c4.75-10.3,18.35-15.34,28.48-10.18,2.86,1.46,5.39-2.86,2.52-4.32-12.43-6.33-29.41-.83-35.31,12a2.57,2.57,0,0,0,.89,3.42,2.51,2.51,0,0,0,3.42-.9Z"/><path class="cls-6" d="M1483.5,844.55c.34-2.53,2.46-4.51,4.72-5.82a28.31,28.31,0,0,1,9.1-3,112.51,112.51,0,0,1,27.85-1.51,2.52,2.52,0,0,0,2.5-2.5,2.55,2.55,0,0,0-2.5-2.5,111.59,111.59,0,0,0-30.62,2c-7.19,1.54-15,5.34-16,13.39a2.52,2.52,0,0,0,2.5,2.5,2.56,2.56,0,0,0,2.5-2.5Z"/><path class="cls-6" d="M1482.92,898.85c6.27-19.58,25.62-33.75,45.87-35.6a48.41,48.41,0,0,1,17.28,1.47c3.1.86,4.43-4,1.33-4.82-21.89-6-46.49,3.21-60.35,20.88a53.82,53.82,0,0,0-9,16.74c-1,3.07,3.84,4.38,4.83,1.33Z"/><path class="cls-6" d="M1503.38,927.19c.64-4.84,5.38-8.49,8.91-11.31a81.92,81.92,0,0,1,13.38-8.64,85.33,85.33,0,0,1,30.09-9.19,86.22,86.22,0,0,1,18.17-.06,2.51,2.51,0,0,0,2.5-2.5,2.55,2.55,0,0,0-2.5-2.5,90.64,90.64,0,0,0-64.69,19c-5,4-10,8.55-10.86,15.23a2.51,2.51,0,0,0,2.5,2.5,2.57,2.57,0,0,0,2.5-2.5Z"/><path class="cls-6" d="M1502,969.69a131,131,0,0,1,39.34-21.38,134.39,134.39,0,0,1,44.18-7.23q6.38,0,12.72.71c3,.32,7.69.42,9.59,3.25,1.78,2.65,6.11.15,4.31-2.53-2.18-3.25-5.77-4.6-9.51-5.17a111.88,111.88,0,0,0-12-1.12,134.27,134.27,0,0,0-23.8,1,140.74,140.74,0,0,0-45.62,14.16,136,136,0,0,0-22.78,14.74,2.5,2.5,0,0,0,0,3.53,2.55,2.55,0,0,0,3.54,0Z"/><path class="cls-6" d="M1536.8,988.74a100.4,100.4,0,0,1,64.11-16.47,2.52,2.52,0,0,0,2.5-2.5,2.55,2.55,0,0,0-2.5-2.5,106,106,0,0,0-53.23,9.63,102.44,102.44,0,0,0-13.41,7.52c-2.66,1.77-.16,6.11,2.53,4.32Z"/><path class="cls-6" d="M1566.24,1016a149.09,149.09,0,0,1,43-.69,2.52,2.52,0,0,0,2.5-2.5,2.55,2.55,0,0,0-2.5-2.5,153.31,153.31,0,0,0-44.35.87,2.53,2.53,0,0,0-1.75,3.08,2.56,2.56,0,0,0,3.08,1.74Z"/><path class="cls-6" d="M1637.31,941a47.17,47.17,0,0,0,14.71-17.5,2.5,2.5,0,0,0-4.32-2.53,44,44,0,0,1-2.58,4.65c-.46.73-.95,1.44-1.45,2.14s-.82,1.11-1.45,1.87a46.83,46.83,0,0,1-3.54,3.78c-.66.62-1.34,1.23-2,1.81s-1.09.89-1.86,1.46a2.58,2.58,0,0,0-.9,3.42,2.53,2.53,0,0,0,3.42.9Z"/><path class="cls-6" d="M1640.09,970.11c19.94-4.49,33.8-21.13,43.3-38.22,2.76-5,5.23-10.07,7.51-15.26a2.59,2.59,0,0,0-.89-3.43,2.52,2.52,0,0,0-3.42.9c-7.48,17-17.31,35.12-33.49,45.26a46,46,0,0,1-14.34,5.93c-3.14.71-1.81,5.53,1.33,4.82Z"/><path class="cls-6" d="M1660.61,1004.59a150.73,150.73,0,0,0,31.62-28.24,154.07,154.07,0,0,0,22.69-35.86,152.2,152.2,0,0,0,8.18-22.71c.84-3.11-4-4.43-4.82-1.32a146.61,146.61,0,0,1-16.16,37.62,149.44,149.44,0,0,1-26,31.92,144.27,144.27,0,0,1-18.06,14.27c-2.67,1.78-.17,6.11,2.52,4.32Z"/><path class="cls-6" d="M1683.26,1029.21c17.22-1.45,26.67-19.23,34.78-32.28,10.09-16.25,19.55-32.94,26.86-50.64a185.82,185.82,0,0,0,9.74-30.34c.7-3.13-4.12-4.47-4.83-1.33-4,17.93-11.07,35-19.57,51.19-4.27,8.17-8.9,16.14-13.7,24-4.39,7.2-8.67,14.65-13.85,21.32-4.81,6.19-11.2,12.39-19.43,13.08a2.56,2.56,0,0,0-2.5,2.5,2.53,2.53,0,0,0,2.5,2.5Z"/><path class="cls-6" d="M1730.41,1051.89a315.44,315.44,0,0,0,37.16-53.63,318.63,318.63,0,0,0,25.32-59.94,312,312,0,0,0,8.63-35.55,2.57,2.57,0,0,0-1.74-3.08,2.52,2.52,0,0,0-3.08,1.75,311.6,311.6,0,0,1-48,118.15,305.5,305.5,0,0,1-21.88,28.76,2.56,2.56,0,0,0,0,3.54,2.53,2.53,0,0,0,3.54,0Z"/><path class="cls-6" d="M1781.68,1050.36c2.52-6.18,6.44-11.71,10.44-17s7.94-10.31,11.7-15.64a313.31,313.31,0,0,0,20.47-33.21,320,320,0,0,0,28.1-72.91,316.33,316.33,0,0,0,7.67-43.32,2.52,2.52,0,0,0-2.5-2.5,2.55,2.55,0,0,0-2.5,2.5A313.73,313.73,0,0,1,1801.71,1012c-4.18,6.07-8.64,11.9-13.11,17.76s-8.87,12.2-11.74,19.24a2.51,2.51,0,0,0,1.75,3.07,2.55,2.55,0,0,0,3.07-1.74Z"/><path class="cls-6" d="M1835.24,1047.86c-.65-4,.82-8.08,2.6-11.62,2-3.92,4.37-7.62,6.53-11.43q6.48-11.46,11.81-23.52a270.92,270.92,0,0,0,21.61-79.35,2.51,2.51,0,0,0-2.5-2.5,2.57,2.57,0,0,0-2.5,2.5,267.89,267.89,0,0,1-32.3,99.57c-4.77,8.5-11.75,17.35-10.07,27.68a2.52,2.52,0,0,0,3.08,1.74,2.55,2.55,0,0,0,1.74-3.07Z"/><path class="cls-6" d="M1326.72,1064c15.8-15.32,32.7-29.75,51.89-40.67s40.82-18.07,63.1-18.2a91.6,91.6,0,0,1,36.19,6.85,2.59,2.59,0,0,0,3.42-.9,2.52,2.52,0,0,0-.9-3.42c-21.56-9.12-45.7-9.39-68.18-3.61-22,5.67-42.11,17.18-60,31a343.66,343.66,0,0,0-29,25.42c-2.31,2.25,1.23,5.78,3.54,3.54Z"/><path class="cls-6" d="M1276,1055.75a31.62,31.62,0,0,1,6.08-7.18c2.41-2.25,4.9-4.44,7.36-6.65,5.08-4.56,10.17-9.1,15.33-13.57,10.14-8.78,20.53-17.28,31.49-25,21.68-15.28,45.78-27.49,72.12-32a111,111,0,0,1,43.7.89c3.13.72,4.47-4.1,1.33-4.82-26.69-6.18-54.67-1.49-79.65,9-25.49,10.71-47.85,27.34-68.77,45.18-5.93,5.06-11.77,10.24-17.58,15.45-2.86,2.56-5.74,5.1-8.56,7.71a36.86,36.86,0,0,0-7.17,8.48c-1.6,2.79,2.71,5.31,4.32,2.52Z"/><path class="cls-6" d="M1218.39,1053.44c2.4-6.47,7.22-11.65,12.16-16.3,5.59-5.25,11.41-10.27,17.16-15.34,11.83-10.44,23.81-20.74,36.35-30.32a310.38,310.38,0,0,1,39.41-26,203.39,203.39,0,0,1,42.83-17.68,149.74,149.74,0,0,1,45.48-5.7c1.93.08,3.86.19,5.79.35a2.5,2.5,0,0,0,0-5,149.25,149.25,0,0,0-47,4.07,201.38,201.38,0,0,0-44.49,16.91,292,292,0,0,0-40.56,25.74c-13,9.68-25.4,20.12-37.59,30.8q-9,7.9-17.92,15.91c-5.35,4.81-10.69,9.93-14.21,16.29a37.05,37.05,0,0,0-2.25,5,2.5,2.5,0,1,0,4.82,1.33Z"/><path class="cls-6" d="M1200.53,1004a171.53,171.53,0,0,1,18.9-31.88,178.47,178.47,0,0,1,25-26.95,182.53,182.53,0,0,1,30-21.4A179.76,179.76,0,0,1,1308,908.84a168.89,168.89,0,0,1,35.9-7.59c1.54-.15,3.07-.27,4.61-.38a2.56,2.56,0,0,0,2.5-2.5,2.53,2.53,0,0,0-2.5-2.5,174,174,0,0,0-37.26,6.73,184.11,184.11,0,0,0-35,14.45,189.24,189.24,0,0,0-31.4,21.24,183.2,183.2,0,0,0-26.31,26.88,175.55,175.55,0,0,0-20.28,32q-1,2.16-2,4.35a2.57,2.57,0,0,0,.89,3.42,2.52,2.52,0,0,0,3.42-.89Z"/><path class="cls-6" d="M1181.76,954.36a122.63,122.63,0,0,1,29.13-42.43,128,128,0,0,1,43.76-27.5,119.65,119.65,0,0,1,28.28-6.78,2.57,2.57,0,0,0,2.5-2.5,2.53,2.53,0,0,0-2.5-2.5,128.1,128.1,0,0,0-51.16,17.22,134.38,134.38,0,0,0-40,36.37A125.35,125.35,0,0,0,1176.94,953a2.53,2.53,0,0,0,1.75,3.08,2.55,2.55,0,0,0,3.07-1.75Z"/><path class="cls-6" d="M1172.91,897.27c8.67-22.74,31.3-36,53.56-42.61a206.92,206.92,0,0,1,21.84-5.06,2.5,2.5,0,1,0-1.33-4.82c-25.3,4.61-51.84,13-68.7,33.69a63.15,63.15,0,0,0-10.19,17.47,2.51,2.51,0,0,0,1.75,3.07,2.54,2.54,0,0,0,3.07-1.74Z"/><path class="cls-6" d="M1040.78,1048.63l74.61-7,21.06-2a2.57,2.57,0,0,0,2.5-2.5,2.51,2.51,0,0,0-2.5-2.5l-74.6,7-21.07,2a2.57,2.57,0,0,0-2.5,2.5,2.53,2.53,0,0,0,2.5,2.5Z"/><path class="cls-6" d="M1040.74,1021.76a781.55,781.55,0,0,0,88.44-9.75q12.35-2.07,24.61-4.55a2.53,2.53,0,0,0,1.75-3.08,2.56,2.56,0,0,0-3.08-1.74,768.24,768.24,0,0,1-86.75,12.4q-12.46,1.07-25,1.72c-3.2.16-3.22,5.17,0,5Z"/><path class="cls-6" d="M1042.37,991.89A739.17,739.17,0,0,0,1139.9,987q13.81-1.62,27.57-3.75a2.52,2.52,0,0,0,1.75-3.07,2.57,2.57,0,0,0-3.08-1.75,732.49,732.49,0,0,1-96.63,8.41q-13.58.28-27.14.07c-3.22,0-3.22,5,0,5Z"/><path class="cls-6" d="M1039,961.63h99.24c3.22,0,3.23-5,0-5H1039c-3.22,0-3.22,5,0,5Z"/><path class="cls-6" d="M1039,923.44l57.6-1.73,16.39-.49c3.21-.1,3.23-5.1,0-5l-57.6,1.73-16.39.49c-3.21.1-3.23,5.1,0,5Z"/><path class="cls-6" d="M1039.06,888.14l48.69-4.42a2.57,2.57,0,0,0,2.5-2.5,2.53,2.53,0,0,0-2.5-2.5l-48.69,4.42a2.57,2.57,0,0,0-2.5,2.5,2.51,2.51,0,0,0,2.5,2.5Z"/><path class="cls-7" d="M1452.36,448.65c-.72.1.12,0,.26,0l.55-.05c.44,0,.87,0,1.31,0a9.28,9.28,0,0,1,2.41.14c-.63-.17-.08,0,.07,0l.64.11c.4.08.79.17,1.18.27a19.36,19.36,0,0,1,2.47.83,2.51,2.51,0,0,0,1.93-.25,2.58,2.58,0,0,0,1.15-1.5,2.52,2.52,0,0,0-.26-1.92,2.85,2.85,0,0,0-1.49-1.15,22.11,22.11,0,0,0-11.55-1.26,2.43,2.43,0,0,0-1.49,1.15,2.49,2.49,0,0,0,.89,3.42,3,3,0,0,0,1.93.25Z"/><path class="cls-7" d="M1444,464.08h17.91a2.5,2.5,0,0,0,0-5H1444a2.5,2.5,0,0,0,0,5Z"/><path class="cls-7" d="M1432,481.08l34.38-4.93a2.52,2.52,0,0,0,1.75-3.07,2.58,2.58,0,0,0-3.08-1.75l-34.38,4.93a2.52,2.52,0,0,0-1.75,3.07,2.58,2.58,0,0,0,3.08,1.75Z"/><path class="cls-7" d="M1415.87,504.12a136.41,136.41,0,0,0,47.62-7.86,2.57,2.57,0,0,0,1.75-3.07,2.53,2.53,0,0,0-3.08-1.75,132.23,132.23,0,0,1-46.29,7.68c-3.22,0-3.22,5,0,5Z"/><path class="cls-7" d="M1422.26,524.39a61.26,61.26,0,0,0,46.37-15.11c2.41-2.13-1.13-5.66-3.53-3.53a56.42,56.42,0,0,1-42.84,13.64,2.5,2.5,0,0,0,0,5Z"/><path class="cls-7" d="M1362.15,488.43h9a2.5,2.5,0,0,0,0-5h-9a2.5,2.5,0,0,0,0,5Z"/><path class="cls-7" d="M1367.28,507.86l20.45-1.56a2.55,2.55,0,0,0,2.5-2.5,2.53,2.53,0,0,0-2.5-2.5l-20.45,1.56a2.57,2.57,0,0,0-2.5,2.5,2.53,2.53,0,0,0,2.5,2.5Z"/><path class="cls-7" d="M1367.27,526.87h20.46c3.22,0,3.23-5,0-5h-20.46c-3.22,0-3.22,5,0,5Z"/><path class="cls-7" d="M1364.71,547.38h20.47c3.21,0,3.22-5,0-5h-20.47c-3.22,0-3.22,5,0,5Z"/><path class="cls-7" d="M1416.47,605.08c.91-17.39,10.19-34.18,24.12-44.56a56.93,56.93,0,0,1,12.86-7.29,2.59,2.59,0,0,0,1.75-3.08,2.52,2.52,0,0,0-3.08-1.74,65.89,65.89,0,0,0-37.7,40.64,62,62,0,0,0-3,16c-.17,3.21,4.83,3.2,5,0Z"/><path class="cls-7" d="M1443,607.23a226.12,226.12,0,0,1,33.31-40.29c2.33-2.23-1.21-5.77-3.54-3.54a232.49,232.49,0,0,0-34.09,41.31c-1.75,2.71,2.58,5.22,4.32,2.52Z"/><path class="cls-7" d="M1447.83,668.7c3.15-22.8,15.79-42.64,29.69-60.44,4-5.16,8.18-10.2,12.36-15.23a2.56,2.56,0,0,0,0-3.53,2.52,2.52,0,0,0-3.54,0c-15,18.07-30.33,36.77-38.57,59.07a89.08,89.08,0,0,0-4.76,18.8,2.58,2.58,0,0,0,1.74,3.08,2.52,2.52,0,0,0,3.08-1.75Z"/><path class="cls-7" d="M1469.52,683.89c-1-4.6.68-9.17,2.92-13.15,2.58-4.61,6-8.73,9.14-12.91l21-27.48,11.91-15.62a2.51,2.51,0,0,0-.9-3.42,2.56,2.56,0,0,0-3.42.9l-21.7,28.46-10.86,14.24c-3.29,4.31-6.78,8.56-9.44,13.3-2.93,5.23-4.66,11-3.43,17a2.5,2.5,0,1,0,4.83-1.33Z"/><path class="cls-7" d="M1480.67,681a123.61,123.61,0,0,0,42.72-55.94,2.52,2.52,0,0,0-1.74-3.08,2.58,2.58,0,0,0-3.08,1.75,119.29,119.29,0,0,1-29.16,43.52,116.39,116.39,0,0,1-11.26,9.43,2.58,2.58,0,0,0-.9,3.42,2.52,2.52,0,0,0,3.42.9Z"/><path class="cls-7" d="M1483.77,711.89c22.34-13.75,38.87-34.59,53.37-56,4.06-6,8-12.13,11.92-18.25,1.74-2.72-2.58-5.23-4.32-2.52-13.62,21.23-27.54,42.83-46.49,59.78a120.52,120.52,0,0,1-17,12.73c-2.73,1.68-.23,6,2.52,4.31Z"/><path class="cls-7" d="M1518.49,702.56A106,106,0,0,0,1553.63,664a107.14,107.14,0,0,0,6-13.6,2.5,2.5,0,1,0-4.82-1.33,100.83,100.83,0,0,1-27.77,40.67,97.12,97.12,0,0,1-11.11,8.49c-2.67,1.77-.17,6.1,2.53,4.32Z"/><path class="cls-7" d="M1372.3,577.63a170.11,170.11,0,0,0,13.35,37.67,2.5,2.5,0,1,0,4.32-2.52,165,165,0,0,1-12.85-36.48c-.71-3.13-5.53-1.81-4.82,1.33Z"/><path class="cls-7" d="M1347.06,598.72a73.27,73.27,0,0,0,6.33,38.5,2.52,2.52,0,0,0,3.42.9,2.57,2.57,0,0,0,.9-3.42,68.44,68.44,0,0,1-5.65-36,2.51,2.51,0,0,0-2.5-2.5,2.57,2.57,0,0,0-2.5,2.5Z"/><path class="cls-7" d="M1322.05,584.14a149.27,149.27,0,0,0-3.78,68.29,145.17,145.17,0,0,0,4.6,18.63c1,3.05,5.8,1.75,4.82-1.33a142.78,142.78,0,0,1-.82-84.26c.92-3.09-3.91-4.41-4.82-1.33Z"/><path class="cls-7" d="M1290.58,596.14a667.79,667.79,0,0,0,2.17,70q.82,9.84,1.94,19.65a2.57,2.57,0,0,0,2.5,2.5,2.51,2.51,0,0,0,2.5-2.5,664.29,664.29,0,0,1-4.24-69.93q-.09-9.87.13-19.74c.07-3.22-4.93-3.22-5,0Z"/><path class="cls-7" d="M1254.52,607.63c-2.59,21.88-5.08,44.13-1.52,66.06a103.83,103.83,0,0,0,4.58,18,2.56,2.56,0,0,0,3.07,1.74,2.52,2.52,0,0,0,1.75-3.07c-7.31-20.6-6.92-42.74-4.91-64.21.58-6.2,1.3-12.38,2-18.55a2.51,2.51,0,0,0-2.5-2.5,2.55,2.55,0,0,0-2.5,2.5Z"/><path class="cls-7" d="M1218.48,619.24a217.89,217.89,0,0,0,6.34,37.62c.82,3.11,5.64,1.79,4.83-1.33a209.5,209.5,0,0,1-6.17-36.29,2.5,2.5,0,0,0-5,0Z"/><path class="cls-7" d="M1192.77,520.83l57.52-9.24a2.51,2.51,0,0,0,1.74-3.07,2.56,2.56,0,0,0-3.07-1.75L1191.44,516a2.5,2.5,0,0,0,1.33,4.82Z"/><path class="cls-7" d="M1314.83,493.52a42.29,42.29,0,0,0,19.79-2.75,2.57,2.57,0,0,0,1.75-3.07,2.51,2.51,0,0,0-3.07-1.75,39,39,0,0,1-18.47,2.57,2.52,2.52,0,0,0-2.5,2.5,2.55,2.55,0,0,0,2.5,2.5Z"/><path class="cls-7" d="M1316.87,521a95.65,95.65,0,0,0,24.5-7.87,2.5,2.5,0,0,0-2.53-4.31,90.82,90.82,0,0,1-23.3,7.36,2.52,2.52,0,0,0-1.75,3.07,2.56,2.56,0,0,0,3.08,1.75Z"/><path class="cls-7" d="M1250,531.34q-26.71,5-53.2,11.12t-52.67,13.39q-14.81,4.11-29.5,8.57c-3.07.93-1.76,5.76,1.33,4.82q26-7.89,52.34-14.67t52.91-12.41q15-3.18,30.12-6a2.5,2.5,0,1,0-1.33-4.82Z"/><path class="cls-7" d="M1256.5,553.37c-19.48,4.71-37.84,13.08-56.23,20.85-18.84,8-37.78,15.74-56.53,23.9-8.65,3.76-17.1,8.31-22.78,16.07a2.52,2.52,0,0,0,.9,3.42,2.55,2.55,0,0,0,3.42-.9c4.7-6.42,12.06-10.28,19.16-13.47,8.84-4,17.85-7.59,26.78-11.36,18.49-7.81,36.9-15.87,55.53-23.35a226.93,226.93,0,0,1,31.08-10.34c3.12-.76,1.8-5.58-1.33-4.82Z"/><path class="cls-7" d="M1496.81,745.33a454.82,454.82,0,0,0,47.06-26.15c7.31-4.66,14.5-9.62,20.72-15.7a110.52,110.52,0,0,0,15.11-18.83c5-7.64,9.33-15.69,13.63-23.74,1.52-2.83-2.79-5.36-4.31-2.52-7.42,13.85-15,28-25.88,39.45a108,108,0,0,1-19.66,15.65q-11.06,7.17-22.56,13.62-13.08,7.39-26.63,13.9a2.5,2.5,0,0,0,2.52,4.32Z"/><path class="cls-7" d="M1380.73,638.74a69,69,0,0,1,18.34,5.64,2.56,2.56,0,0,0,3.42-.9,2.52,2.52,0,0,0-.9-3.42,73.61,73.61,0,0,0-19.53-6.14,2.58,2.58,0,0,0-3.08,1.74,2.52,2.52,0,0,0,1.75,3.08Z"/><path class="cls-7" d="M1366.8,667.27a229.11,229.11,0,0,0,28.44,17.05c2.87,1.45,5.4-2.86,2.53-4.31A228.09,228.09,0,0,1,1369.32,663a2.51,2.51,0,0,0-3.42.9,2.55,2.55,0,0,0,.9,3.42Z"/><path class="cls-7" d="M1352.16,689.57A112.09,112.09,0,0,0,1400,719.9a109.37,109.37,0,0,0,15.75,3.77,2.59,2.59,0,0,0,3.08-1.75,2.53,2.53,0,0,0-1.75-3.08,107,107,0,0,1-49.79-22A109,109,0,0,1,1355.69,686c-2.19-2.37-5.72,1.17-3.53,3.53Z"/><path class="cls-7" d="M1320.45,709.88c9,9.63,21.22,16,32.86,21.87a302.21,302.21,0,0,0,37.73,16q10.85,3.76,21.94,6.67c3.12.82,4.45-4,1.33-4.82a287.41,287.41,0,0,1-73.56-30.41A75,75,0,0,1,1324,706.35c-2.21-2.35-5.74,1.19-3.54,3.53Z"/><path class="cls-7" d="M1277.38,718.05c8.73,22.19,27.73,38,48.38,48.84,11.58,6.07,23.79,10.83,36,15.48,12.57,4.8,25.23,9.43,38.28,12.76,14.6,3.73,29.75,5.8,44.82,4.4a2.57,2.57,0,0,0,2.5-2.5,2.51,2.51,0,0,0-2.5-2.5c-26.22,2.45-51.77-5.73-76-14.8-22.84-8.54-46.72-17.35-65.25-33.74-9.12-8.06-16.9-17.87-21.39-29.27a2.58,2.58,0,0,0-3.07-1.75,2.53,2.53,0,0,0-1.75,3.08Z"/><path class="cls-7" d="M1230,712.66a118.91,118.91,0,0,0,14.6,25.05c5.29,7.16,11,14.06,16.91,20.68a285.88,285.88,0,0,0,37.27,34.77,268.13,268.13,0,0,0,43.32,27.64,234.73,234.73,0,0,0,47.35,18,204.9,204.9,0,0,0,50.08,6.58c2.09,0,4.17,0,6.26-.07,3.21-.09,3.23-5.09,0-5a197.28,197.28,0,0,1-49.16-4.91A225,225,0,0,1,1350,819.16a261.16,261.16,0,0,1-42.92-25.86,281.64,281.64,0,0,1-37.44-33.36q-8.64-9.18-16.47-19.09a145.47,145.47,0,0,1-15.51-23.28c-1-2-2-4.12-2.92-6.24a2.58,2.58,0,0,0-3.07-1.75,2.52,2.52,0,0,0-1.75,3.08Z"/><path class="cls-7" d="M1456.54,530.34a16.24,16.24,0,0,0,11-1.43,41.27,41.27,0,0,0,8.65-6.14,2.53,2.53,0,0,0,0-3.54,2.56,2.56,0,0,0-3.54,0,37.64,37.64,0,0,1-7.09,5.1,11.24,11.24,0,0,1-7.72,1.19,2.55,2.55,0,0,0-3.08,1.75,2.53,2.53,0,0,0,1.75,3.07Z"/><path class="cls-7" d="M1545.44,589c1.94,4.07,5.48,7,8.94,9.69s7.17,5.47,10.91,8a183.53,183.53,0,0,0,23,13.3A189.39,189.39,0,0,0,1639,636.31a187.31,187.31,0,0,0,30.08,2.72c3.22,0,3.22-5,0-5a182.39,182.39,0,0,1-50.93-7.76,184.73,184.73,0,0,1-46.83-21.61q-6-3.9-11.75-8.26c-3.67-2.8-7.78-5.7-9.82-10a2.52,2.52,0,0,0-3.42-.9,2.56,2.56,0,0,0-.9,3.42Z"/><path class="cls-7" d="M1569.15,570.46c5.58,6.42,11.23,12.88,17.93,18.17a58.19,58.19,0,0,0,11,7c4.24,2,8.68,3.59,12.92,5.61a100.73,100.73,0,0,1,13.45,7.73c2.67,1.82,5.18-2.51,2.53-4.31a100.94,100.94,0,0,0-11.61-6.84c-4.11-2.06-8.4-3.68-12.61-5.52-7.89-3.46-14.48-8.65-20.48-14.78-3.34-3.4-6.48-7-9.61-10.6a2.5,2.5,0,0,0-3.54,3.54Z"/><path class="cls-7" d="M1571.61,539a152.27,152.27,0,0,0,44.15,36.32,143.4,143.4,0,0,0,26.74,11.21,177.77,177.77,0,0,0,32.74,6.29c12.57,1.35,25.2,1.76,37.82,2.16,3.22.1,3.22-4.9,0-5-21.91-.69-44.1-1.39-65.38-7.17a140.49,140.49,0,0,1-49.88-25.25,152.68,152.68,0,0,1-22.66-22.09,2.5,2.5,0,0,0-3.53,0,2.54,2.54,0,0,0,0,3.53Z"/><path class="cls-7" d="M1582.12,513.54c12.61,15.09,29.44,25.43,47.29,33.24A335.11,335.11,0,0,0,1686.86,566a244.23,244.23,0,0,0,34.41,5.57,2.51,2.51,0,0,0,2.5-2.5,2.55,2.55,0,0,0-2.5-2.5c-20-1.76-39.7-6.4-58.78-12.64-18.14-5.93-36.48-12.79-52.68-23A102.87,102.87,0,0,1,1585.65,510a2.5,2.5,0,0,0-3.53,0,2.54,2.54,0,0,0,0,3.53Z"/><path class="cls-7" d="M1616.35,499.34,1675.46,529l16.73,8.39c2.86,1.44,5.4-2.87,2.52-4.31l-59.11-29.66L1618.87,495c-2.87-1.44-5.4,2.87-2.52,4.32Z"/><path class="cls-7" d="M1641.68,479.81c4.39,1.39,8.63,3.17,12.89,4.88l13.42,5.38,26.83,10.75,15.26,6.12a2.52,2.52,0,0,0,3.08-1.74,2.56,2.56,0,0,0-1.75-3.08l-53.66-21.51c-4.88-2-9.72-4-14.74-5.62-3.07-1-4.39,3.85-1.33,4.82Z"/><path class="cls-7" d="M1676.68,454.84c7.27,11.66,21.3,14.45,33.89,16.34a2.57,2.57,0,0,0,3.07-1.75,2.51,2.51,0,0,0-1.74-3.07c-11.08-1.66-24.44-3.66-30.9-14-1.7-2.73-6-.22-4.32,2.52Z"/><path class="cls-7" d="M1834.19,416.83l60.78-2.51c3.21-.13,3.22-5.13,0-5l-60.78,2.51c-3.2.13-3.22,5.13,0,5Z"/><path class="cls-7" d="M1801.52,448.67l81.4,1.1,23,.3c3.22.05,3.22-4.95,0-5l-81.4-1.09-23-.31c-3.22,0-3.22,5,0,5Z"/><path class="cls-7" d="M1784.27,480.53q47.55.66,95,4.76,13.32,1.15,26.62,2.58a2.51,2.51,0,0,0,2.5-2.5,2.56,2.56,0,0,0-2.5-2.5q-47.28-5.06-94.86-6.7-13.37-.45-26.74-.64c-3.22,0-3.22,5,0,5Z"/><path class="cls-7" d="M1778.85,511.48l92.91,3.3,26,.92c3.22.11,3.21-4.89,0-5l-92.9-3.3-26-.92c-3.21-.11-3.21,4.89,0,5Z"/><path class="cls-7" d="M1807.87,545.55h89.85c3.22,0,3.22-5,0-5h-89.85c-3.22,0-3.22,5,0,5Z"/><path class="cls-7" d="M1735.77,616.65c15.65-13.27,33.33-25.39,53.65-29.92a75.55,75.55,0,0,1,53.29,8.35,73.82,73.82,0,0,1,23,20.12,2.57,2.57,0,0,0,3.42.89,2.51,2.51,0,0,0,.89-3.42,81.48,81.48,0,0,0-48.22-30.86,79.07,79.07,0,0,0-29.37-.74,96.76,96.76,0,0,0-30.17,10.83c-10.79,5.86-20.66,13.29-30,21.22a2.51,2.51,0,0,0,0,3.53,2.55,2.55,0,0,0,3.54,0Z"/><path class="cls-7" d="M1765.71,640.36a59.79,59.79,0,0,1,24.54-18.68c9.3-3.75,19.86-5.56,29.74-3.19a27,27,0,0,1,13.94,7.89c2.17,2.39,5.7-1.16,3.54-3.54-7.47-8.2-19.12-11-29.86-10.29a62.78,62.78,0,0,0-31.48,11.16,63.43,63.43,0,0,0-14,13.12,2.57,2.57,0,0,0,0,3.53,2.5,2.5,0,0,0,3.53,0Z"/><path class="cls-7" d="M1789.44,669.66c7.43-4.83,15.16-9.69,23.81-12,7.84-2.06,16-1.37,23,2.92a27.35,27.35,0,0,1,8.94,8.93c1.68,2.74,6,.23,4.32-2.52a32.81,32.81,0,0,0-20.4-14.7c-9.62-2.17-19.3.48-28,4.7a132.8,132.8,0,0,0-14.2,8.33c-2.69,1.74-.19,6.07,2.52,4.31Z"/><path class="cls-7" d="M1634.1,654.39q25-.54,50.07-.39,7.1,0,14.19.14c3.22.05,3.22-4.95,0-5q-25-.35-50.07,0-7.1.09-14.19.25c-3.21.07-3.23,5.07,0,5Z"/><path class="cls-7" d="M1632.35,689l77.12,2.77,21.89.79c3.22.11,3.22-4.89,0-5l-77.12-2.77-21.89-.79c-3.22-.11-3.21,4.89,0,5Z"/><path class="cls-7" d="M1594,728.69c25-2,50.08-1.5,75.11-.46s50.31,2.52,75.46,4l42.79,2.46c3.21.19,3.2-4.81,0-5q-37.78-2.17-75.57-4.33c-25.08-1.38-50.2-2.79-75.32-3-14.17-.11-28.34.23-42.47,1.36a2.55,2.55,0,0,0-2.5,2.5,2.51,2.51,0,0,0,2.5,2.5Z"/><path class="cls-7" d="M1555.22,767.38c20.3-3.39,41.18-2.55,61.69-2.5q31.35.09,62.68.49,62.69.78,125.34,2.82,35.16,1.14,70.31,2.67c3.22.14,3.21-4.86,0-5q-62.94-2.75-125.94-4.23-62.65-1.49-125.35-1.72c-11.66,0-23.33-.14-35,0a227.36,227.36,0,0,0-35.07,2.65,2.52,2.52,0,0,0-1.75,3.08,2.56,2.56,0,0,0,3.08,1.74Z"/><path class="cls-7" d="M1585.82,825.78c25.61-2.56,51.2-4.89,77-4.84,12.84,0,25.68.22,38.52.36,12.37.13,24.75.31,37.1,1.12a233.43,233.43,0,0,1,41.08,6c3.12.78,4.45-4,1.33-4.82-24.26-6-49.37-7-74.25-7.26-25.75-.33-51.57-1-77.29.6-14.51.93-29,2.38-43.45,3.82a2.58,2.58,0,0,0-2.5,2.5,2.51,2.51,0,0,0,2.5,2.5Z"/><path class="cls-7" d="M1615.23,869.7q29.3.93,58.57,2.51t58.26,3.8q16.47,1.26,32.93,2.72a2.52,2.52,0,0,0,2.5-2.5,2.55,2.55,0,0,0-2.5-2.5q-29.21-2.6-58.45-4.55T1648.25,866q-16.51-.74-33-1.25c-3.22-.11-3.21,4.89,0,5Z"/><path class="cls-7" d="M1482.65,826.94a49.54,49.54,0,0,1,31-7,2.51,2.51,0,0,0,2.5-2.5,2.56,2.56,0,0,0-2.5-2.5,54,54,0,0,0-33.49,7.7c-2.74,1.69-.23,6,2.53,4.32Z"/><path class="cls-7" d="M1480.8,873.41c.22-4.28,2.71-8,5.59-11a50.08,50.08,0,0,1,10.45-8.21,58.51,58.51,0,0,1,25.26-8.22,56.7,56.7,0,0,1,15,.69,2.58,2.58,0,0,0,3.08-1.75,2.52,2.52,0,0,0-1.75-3.07c-19.41-3.59-41,2.31-55,16.45-4.1,4.12-7.32,9.21-7.62,15.15-.16,3.21,4.84,3.21,5,0Z"/><path class="cls-7" d="M1497.79,908c-.23-7.94,4.44-15.16,10.73-19.67,7-5,15.81-7.71,24.3-8.9a50.3,50.3,0,0,1,15.73.18,2.58,2.58,0,0,0,3.08-1.75,2.52,2.52,0,0,0-1.75-3.07c-10.21-1.83-20.77-.55-30.57,2.71-8.86,3-17.32,7.89-22.39,16a26.09,26.09,0,0,0-4.13,14.53c.09,3.21,5.09,3.22,5,0Z"/><path class="cls-7" d="M1510,947.93a69.21,69.21,0,0,1,24.4-22.38,68.15,68.15,0,0,1,34.89-8.29,69.47,69.47,0,0,1,21.16,4,2.52,2.52,0,0,0,3.08-1.74,2.56,2.56,0,0,0-1.75-3.08,74.4,74.4,0,0,0-40.38-2.57,74,74,0,0,0-45.72,31.51c-1.78,2.69,2.55,5.2,4.32,2.52Z"/><path class="cls-7" d="M1526,975.6c17.46-9.17,36.44-16.91,56.32-18.16a81.62,81.62,0,0,1,16.39.54,2.6,2.6,0,0,0,3.08-1.75,2.52,2.52,0,0,0-1.75-3.08c-20.9-2.91-41.57,2.29-60.71,10.52-5.38,2.32-10.66,4.89-15.85,7.61-2.85,1.5-.33,5.82,2.52,4.32Z"/><path class="cls-7" d="M1555.17,1001.47c16.46-7.63,34.37-14.45,52.83-12.06a2.51,2.51,0,0,0,2.5-2.5,2.57,2.57,0,0,0-2.5-2.5c-19.31-2.51-38.15,4.77-55.35,12.74a2.51,2.51,0,0,0-.9,3.42,2.55,2.55,0,0,0,3.42.9Z"/><path class="cls-7" d="M1569.78,1032a317.54,317.54,0,0,1,36.11.49,2.5,2.5,0,0,0,0-5,317.54,317.54,0,0,0-36.11-.49c-3.2.14-3.22,5.14,0,5Z"/><path class="cls-7" d="M1633.94,955.19c4.16.84,7.23-2.27,10.23-4.65,2.81-2.22,5.6-4.47,8.31-6.81a100.14,100.14,0,0,0,14.77-15.34,57.69,57.69,0,0,0,6.23-10.22,2.58,2.58,0,0,0-.89-3.43,2.53,2.53,0,0,0-3.42.9c-3.57,7.55-8.87,14-14.87,19.71-3,2.9-6.23,5.64-9.48,8.3-1.59,1.3-3.21,2.59-4.83,3.87-.8.64-1.59,1.31-2.44,1.9-.61.42-1.49,1.11-2.28,1a2.57,2.57,0,0,0-3.08,1.75,2.52,2.52,0,0,0,1.75,3.07Z"/><path class="cls-7" d="M1655.1,984.77c9.17-4.7,14.48-14,21.64-21,4.15-4.06,8.71-7.68,12.73-11.87a73.07,73.07,0,0,0,17.25-29.54c.94-3.09-3.88-4.41-4.82-1.33a68.23,68.23,0,0,1-15.1,26.42c-3.76,4.06-8.06,7.57-12.1,11.36A133.81,133.81,0,0,0,1664.56,970c-3.48,4.07-7.16,8-12,10.51-2.87,1.46-.34,5.78,2.52,4.31Z"/><path class="cls-7" d="M1681.82,1014.06c6.67-12,18.8-19.57,27.23-30.2,4.83-6.08,8.69-12.8,12.55-19.52a208.4,208.4,0,0,0,10.46-20,75.87,75.87,0,0,0,6.66-24.8,2.52,2.52,0,0,0-2.5-2.5,2.56,2.56,0,0,0-2.5,2.5c-1.12,14.76-8.35,28.12-15.55,40.71-3.76,6.58-7.46,13.27-12.07,19.3-4.13,5.41-9.19,10-14.11,14.67-5.46,5.19-10.8,10.65-14.49,17.29-1.56,2.82,2.76,5.34,4.32,2.53Z"/><path class="cls-7" d="M1716.94,1036.49a424.49,424.49,0,0,0,28.76-44.4c8.42-15.29,15.56-31.4,20.2-48.25a162.62,162.62,0,0,0,5.25-29,2.51,2.51,0,0,0-2.5-2.5,2.55,2.55,0,0,0-2.5,2.5c-1.48,17-6.05,33.58-12.49,49.34-6.51,16-15,31.07-24.33,45.54C1724,1018,1718.4,1026,1712.62,1034a2.54,2.54,0,0,0,.9,3.43,2.57,2.57,0,0,0,3.42-.9Z"/><path class="cls-7" d="M1758.54,1048.11c10.63-20.14,23.71-38.82,35.68-58.15s22.86-39.45,28.56-61.49a147.08,147.08,0,0,0,3.84-21.46c.57-5.4.49-11.92,4.39-16.19,2.16-2.37-1.37-5.92-3.54-3.53-3.84,4.2-4.85,9.72-5.41,15.2a178.53,178.53,0,0,1-2.67,18.57,158.07,158.07,0,0,1-11,32.72c-9.46,20.69-22.24,39.61-34.47,58.72-6.92,10.81-13.7,21.73-19.7,33.08-1.5,2.85,2.81,5.38,4.32,2.53Z"/><path class="cls-7" d="M1812.05,1051.19c1.69-8.89,5.66-17,10-24.87s8.82-15.72,13-23.71c8.39-16,16-32.64,21-50.07a157.85,157.85,0,0,0,5.62-30,2.52,2.52,0,0,0-2.5-2.5,2.55,2.55,0,0,0-2.5,2.5c-1.52,17.78-6.68,35-13.51,51.46s-15.58,32.21-24.3,47.83c-4.93,8.84-9.68,18-11.59,28a2.56,2.56,0,0,0,1.74,3.08,2.53,2.53,0,0,0,3.08-1.75Z"/><path class="cls-7" d="M1855.17,1047.31a444.5,444.5,0,0,1,27.59-69.8q4.76-9.57,10-18.91c1.57-2.82-2.75-5.34-4.32-2.53a452.14,452.14,0,0,0-31.43,69.58q-3.57,10.08-6.64,20.33c-.93,3.09,3.89,4.4,4.82,1.33Z"/><path class="cls-7" d="M1156.83,879.91c7.29-10.69,16.92-19.61,27.32-27.22,5.27-3.86,10.75-7.46,16.35-10.82a112.15,112.15,0,0,1,18.39-9.15,56.88,56.88,0,0,1,21.88-3.87c3.21.12,3.21-4.88,0-5-14.32-.53-27.93,5.13-40.12,12.14a177.5,177.5,0,0,0-33.21,24,105.48,105.48,0,0,0-14.93,17.34c-1.82,2.67,2.51,5.17,4.32,2.53Z"/><path class="cls-7" d="M1171.71,929.45c4.82-13.58,13.53-25.39,23.83-35.33a145,145,0,0,1,16.92-14,106.07,106.07,0,0,1,20.28-11.58,56.94,56.94,0,0,1,25.27-4.72c3.22.19,3.21-4.81,0-5-16.5-1-32.21,6.21-45.59,15.26-12.7,8.6-24.4,19-33.49,31.38a88.41,88.41,0,0,0-12,22.61,2.5,2.5,0,1,0,4.82,1.33Z"/><path class="cls-7" d="M1194.85,971c3.31-13.8,11.09-26,20.94-36.07,10.85-11.09,24.07-19.44,37.76-26.58,8.14-4.25,16.47-8.09,24.8-11.92a2.51,2.51,0,0,0,.9-3.42,2.55,2.55,0,0,0-3.42-.9c-15.06,6.93-30.21,13.91-44,23.2-12.52,8.44-23.84,18.82-32,31.61A74.89,74.89,0,0,0,1190,969.7c-.75,3.13,4.07,4.47,4.82,1.33Z"/><path class="cls-7" d="M1221.67,1016.46a157.11,157.11,0,0,1,88-86.14,244.65,244.65,0,0,1,39.64-11.51A2.5,2.5,0,0,0,1348,914c-23.72,5-47.18,12.6-67.78,25.61a163.05,163.05,0,0,0-46,43.9,159.43,159.43,0,0,0-17.29,31.63,2.52,2.52,0,0,0,1.75,3.08,2.56,2.56,0,0,0,3.07-1.75Z"/><path class="cls-7" d="M1248.06,1053a604.2,604.2,0,0,1,50.18-47.94,311.13,311.13,0,0,1,27.25-21.33,161.86,161.86,0,0,1,28.43-15.37,165.44,165.44,0,0,1,35-10.22,2.52,2.52,0,0,0,1.74-3.08,2.55,2.55,0,0,0-3.07-1.74,168.28,168.28,0,0,0-61.13,23.79c-9.81,6.27-18.89,13.62-27.81,21.08s-17.78,15.31-26.32,23.35q-14.36,13.5-27.81,27.92c-2.19,2.35,1.34,5.9,3.54,3.54Z"/><path class="cls-7" d="M1298.76,1064.13a210,210,0,0,1,47.88-46.48,171.14,171.14,0,0,1,64-27.46,148.08,148.08,0,0,1,40-2.38,2.5,2.5,0,0,0,0-5c-24.48-1.9-49.3,2.51-72,11.77a191.29,191.29,0,0,0-58.49,38.1,229.05,229.05,0,0,0-25.78,28.92,2.53,2.53,0,0,0,.9,3.43,2.57,2.57,0,0,0,3.42-.9Z"/><path class="cls-7" d="M1363,1064.75c14.35-7.36,28.59-15,43.13-22,12.64-6.08,26.29-11,40.54-9.87a39.38,39.38,0,0,1,20.24,7.31,2.52,2.52,0,0,0,3.42-.9,2.55,2.55,0,0,0-.89-3.42c-11.37-8.37-26.48-9.59-40-6.83-15.47,3.16-29.52,11.14-43.42,18.27l-25.59,13.11c-2.86,1.47-.33,5.79,2.53,4.32Z"/><path class="cls-7" d="M1040.6,873.49l31.48-2.52a2.57,2.57,0,0,0,2.5-2.5,2.52,2.52,0,0,0-2.5-2.5l-31.48,2.52a2.56,2.56,0,0,0-2.5,2.5,2.53,2.53,0,0,0,2.5,2.5Z"/><path class="cls-7" d="M1040.59,905.51a464.93,464.93,0,0,0,56.84-2.13,2.56,2.56,0,0,0,2.5-2.5,2.53,2.53,0,0,0-2.5-2.5,464.93,464.93,0,0,1-56.84,2.13c-3.22-.08-3.22,4.92,0,5Z"/><path class="cls-7" d="M1042,941.39l64,2.54,18.18.72c3.21.13,3.21-4.87,0-5l-64-2.54-18.18-.72c-3.22-.12-3.21,4.88,0,5Z"/><path class="cls-7" d="M1042,977.32c25.21,2.17,50.61-1.06,75.71-3.28l21.48-1.9a2.57,2.57,0,0,0,2.5-2.5,2.52,2.52,0,0,0-2.5-2.5l-38,3.36c-12.56,1.11-25.12,2.24-37.73,2.47a207.31,207.31,0,0,1-21.44-.65,2.51,2.51,0,0,0-2.5,2.5,2.55,2.55,0,0,0,2.5,2.5Z"/><path class="cls-7" d="M1042,1007.12a529,529,0,0,0,80.65-4.11q11.43-1.47,22.78-3.41a2.5,2.5,0,1,0-1.33-4.82,524.49,524.49,0,0,1-79.5,7.44q-11.3.19-22.6-.1c-3.22-.08-3.22,4.92,0,5Z"/><path class="cls-7" d="M1040.54,1036c22.28.7,44.14-4.36,66.26-6.07a159.2,159.2,0,0,1,18.79-.42c3.22.14,3.21-4.86,0-5-22.27-.92-44.15,4.09-66.25,5.92a163.85,163.85,0,0,1-18.8.57c-3.22-.1-3.21,4.9,0,5Z"/><path class="cls-7" d="M1042.65,1060c10.65-.77,21.3.48,31.95.07a88.64,88.64,0,0,0,15.72-2.09c5.13-1.13,10.23-2.25,15.44-3a138.22,138.22,0,0,1,17.84-1.17c3.22,0,3.22-5,0-5a147.1,147.1,0,0,0-31.57,3.61,97,97,0,0,1-15.25,2.5c-5.35.32-10.72.16-16.07,0a172.69,172.69,0,0,0-18.06,0,2.57,2.57,0,0,0-2.5,2.5,2.52,2.52,0,0,0,2.5,2.5Z"/><path class="cls-7" d="M1174,823.62a148.49,148.49,0,0,0,20.34-36.15,2.52,2.52,0,0,0-1.75-3.08,2.55,2.55,0,0,0-3.07,1.75,144,144,0,0,1-19.83,35,2.51,2.51,0,0,0,.89,3.42,2.56,2.56,0,0,0,3.42-.89Z"/><path class="cls-7" d="M1136.93,811.18c17.12-21.1,34.47-42.48,46.67-66.92a168.1,168.1,0,0,0,8.94-21.38c1-3.06-3.8-4.37-4.83-1.33-8.51,25.26-23.82,47.52-40.11,68.35-4.66,6-9.43,11.86-14.21,17.74a2.58,2.58,0,0,0,0,3.54,2.53,2.53,0,0,0,3.54,0Z"/><path class="cls-7" d="M1085.64,811.31a206.16,206.16,0,0,0,40.2-37.63,270.24,270.24,0,0,0,30.5-46.38c4.88-9.3,9.27-18.86,13.28-28.57a2.51,2.51,0,0,0-1.74-3.08,2.58,2.58,0,0,0-3.08,1.75A311.87,311.87,0,0,1,1140,745.55a233.44,233.44,0,0,1-33.77,42.11A190,190,0,0,1,1083.11,807a2.56,2.56,0,0,0-.89,3.42,2.52,2.52,0,0,0,3.42.9Z"/><path class="cls-7" d="M1051.76,786.22a446.82,446.82,0,0,0,44.08-38.61q10.34-10.33,20-21.35c6.32-7.22,12.55-14.6,18.16-22.39,6.08-8.44,11.27-17.73,13.54-28,.69-3.13-4.12-4.47-4.82-1.33-2,8.86-6.21,16.88-11.31,24.32a250.08,250.08,0,0,1-17.19,21.63A441.39,441.39,0,0,1,1074,761.37q-12,10.71-24.77,20.53a2.58,2.58,0,0,0-.9,3.42,2.51,2.51,0,0,0,3.42.9Z"/><path class="cls-7" d="M1047,746.61A314.94,314.94,0,0,0,1099.53,687q6.35-9.35,12-19.13c1.62-2.8-2.7-5.32-4.31-2.53a309.81,309.81,0,0,1-47.65,62.54q-7.79,7.89-16.1,15.2a2.5,2.5,0,0,0,0,3.53,2.53,2.53,0,0,0,3.53,0Z"/><path class="cls-7" d="M1137,650.29q38.79-22.47,78.66-43c6.42-3.3,12.81-6.8,19.55-9.41s14-3.64,20.76-6.2c6.61-2.49,12.52-6.39,18.66-9.83a209.13,209.13,0,0,1,19-9.34c14.48-6.28,29.53-11.19,44.52-16.1,3-1,1.74-5.83-1.33-4.82-13.6,4.45-27.21,8.92-40.45,14.38-6.59,2.72-13.09,5.65-19.41,8.94s-12.07,7.13-18.36,10.21c-6.45,3.16-13.5,4.25-20.3,6.38-7,2.18-13.49,5.5-20,8.81q-20,10.17-39.67,20.86-22.26,12.07-44.19,24.77c-2.78,1.62-.27,5.94,2.52,4.32Z"/><path class="cls-6" d="M1118.7,826.42c1.69,4.61,5.5,7.67,9.75,9.87a68.49,68.49,0,0,0,15.39,5.72c3.12.77,4.45-4,1.32-4.82a64.59,64.59,0,0,1-13.56-4.89c-3.16-1.58-6.79-3.69-8.08-7.2a2.56,2.56,0,0,0-3.07-1.75,2.52,2.52,0,0,0-1.75,3.07Z"/><path class="cls-6" d="M1093,833.56c0,7.83,5.41,14.11,10.73,19.26a89.39,89.39,0,0,0,18,13.5,92.22,92.22,0,0,0,11.8,5.6,2.52,2.52,0,0,0,3.08-1.74,2.57,2.57,0,0,0-1.75-3.08,83.4,83.4,0,0,1-22.57-13.31,74.76,74.76,0,0,1-9.46-9.2c-2.61-3.12-4.82-6.85-4.82-11,0-3.22-5-3.22-5,0Z"/><path class="cls-6" d="M1053.87,837.35a58.53,58.53,0,0,0,11.4,20.94,2.53,2.53,0,0,0,3.54,0,2.56,2.56,0,0,0,0-3.54A52.39,52.39,0,0,1,1058.7,836c-.93-3.07-5.76-1.76-4.83,1.33Z"/><path class="cls-6" d="M1105.08,893a169.77,169.77,0,0,0,34.55,10.16,2.58,2.58,0,0,0,3.08-1.75,2.52,2.52,0,0,0-1.75-3.07,169.77,169.77,0,0,1-34.55-10.16,2.53,2.53,0,0,0-3.08,1.75,2.57,2.57,0,0,0,1.75,3.07Z"/><path class="cls-6" d="M1383.41,909.39c7.26-9.54,14.26-19.36,22.07-28.47a2.57,2.57,0,0,0,0-3.53,2.53,2.53,0,0,0-3.54,0c-8.08,9.42-15.33,19.6-22.85,29.48a2.53,2.53,0,0,0,.9,3.42,2.56,2.56,0,0,0,3.42-.9Z"/><path class="cls-6" d="M1357.63,884.84a80.87,80.87,0,0,1,8.51-14.44,2.51,2.51,0,0,0-.9-3.42,2.57,2.57,0,0,0-3.42.9,80.52,80.52,0,0,0-8.51,14.44,2.57,2.57,0,0,0,.9,3.42,2.53,2.53,0,0,0,3.42-.9Z"/><path class="cls-6" d="M1412.67,927q9.94-18.87,21.69-36.71c1.78-2.7-2.55-5.2-4.31-2.52q-11.73,17.81-21.7,36.71c-1.5,2.84,2.81,5.37,4.32,2.52Z"/><path class="cls-6" d="M1436.7,950.93c.72-4.09,3.19-7.55,5.27-11.06q3.42-5.8,6.66-11.7,6.43-11.71,12.17-23.78,3.24-6.82,6.25-13.77a2.58,2.58,0,0,0-.89-3.42,2.52,2.52,0,0,0-3.42.89,451.13,451.13,0,0,1-24.49,48.24c-2.46,4.18-5.52,8.4-6.37,13.28a2.57,2.57,0,0,0,1.75,3.07,2.52,2.52,0,0,0,3.07-1.75Z"/><path class="cls-6" d="M1471.86,980.68c-.23-4.65,1.33-9,2.91-13.34q2.63-7.14,5.26-14.26l10.46-28.36a2.52,2.52,0,0,0-1.74-3.07,2.56,2.56,0,0,0-3.08,1.75L1475,952.22c-1.75,4.74-3.52,9.48-5.25,14.23-1.68,4.57-3.17,9.3-2.93,14.23.16,3.21,5.16,3.22,5,0Z"/><path class="cls-6" d="M1492.3,1029c.2-4.08,2.11-8,3.68-11.73s3.3-7.49,5.11-11.16a215.82,215.82,0,0,1,12.31-21.65c1.76-2.71-2.57-5.22-4.31-2.53a213.52,213.52,0,0,0-12.72,22.49q-2.88,5.89-5.39,11.95c-1.71,4.07-3.46,8.16-3.68,12.63-.16,3.22,4.84,3.21,5,0Z"/><path class="cls-6" d="M1505.18,1058.31q10.75-24.57,22.49-48.7a2.57,2.57,0,0,0-.9-3.43,2.52,2.52,0,0,0-3.42.9q-11.73,24.13-22.49,48.71a2.58,2.58,0,0,0,.9,3.42,2.52,2.52,0,0,0,3.42-.9Z"/><path class="cls-6" d="M1541.73,1059.42c-.85-4.76,1.58-9.52,3.57-13.68q3.5-7.34,7-14.66a2.57,2.57,0,0,0-.9-3.42,2.51,2.51,0,0,0-3.42.9c-2.54,5.3-5.1,10.6-7.61,15.92-2.44,5.16-4.5,10.48-3.48,16.27a2.54,2.54,0,0,0,3.08,1.75,2.57,2.57,0,0,0,1.75-3.08Z"/><path class="cls-6" d="M1835.71,857.2c7.36-3.32,15.12-6.77,23.39-6.21a27.82,27.82,0,0,1,18.66,9.31c2.14,2.41,5.67-1.13,3.53-3.53A32.84,32.84,0,0,0,1859.5,846c-9.3-.76-18,3.13-26.31,6.87a2.52,2.52,0,0,0-.9,3.42,2.56,2.56,0,0,0,3.42.89Z"/><path class="cls-6" d="M1807,830.42c10.73-9,23.42-15.87,37.15-18.88,12.73-2.79,26.4-1.9,38.4,3.36a52.7,52.7,0,0,1,17.82,12.57c2.18,2.38,5.71-1.17,3.53-3.53-9.44-10.29-22.69-16.45-36.43-18.32-14.68-2-29.47,1.08-42.77,7.42a100.84,100.84,0,0,0-21.24,13.84,2.54,2.54,0,0,0,0,3.54,2.56,2.56,0,0,0,3.54,0Z"/><path class="cls-6" d="M1865.27,782c12.81-2.3,24.86,4.74,35.41,11,2.76,1.65,5.28-2.67,2.52-4.32-11.89-7.1-24.93-14.11-39.26-11.54a2.52,2.52,0,0,0-1.74,3.08,2.55,2.55,0,0,0,3.07,1.74Z"/><path class="cls-6" d="M1819.69,755.31c7.6-8.54,18.21-13.23,29.08-16.07a137.54,137.54,0,0,1,16.82-3.25,78.12,78.12,0,0,1,17.62-.54,34.82,34.82,0,0,1,17.52,6.42,2.52,2.52,0,0,0,3.42-.9,2.55,2.55,0,0,0-.9-3.42c-10-7.46-23.25-8.14-35.26-6.84s-24.51,3.81-35.56,9.1a51.22,51.22,0,0,0-16.27,12c-2.14,2.4,1.39,6,3.53,3.54Z"/><path class="cls-6" d="M1795.92,721.58c7.19-3.77,14.34-7.64,21.59-11.3a82.54,82.54,0,0,1,21.85-7.61,200.07,200.07,0,0,1,22.64-2.58,92.48,92.48,0,0,1,18.82,0c6.41.83,12.66,3,17.23,7.77,2.24,2.31,5.78-1.23,3.53-3.54-9.37-9.68-23.81-10.22-36.41-9.45-7.77.47-15.57,1.11-23.27,2.31a85.06,85.06,0,0,0-23.28,7c-8.56,4-16.85,8.68-25.22,13.07-2.85,1.5-.33,5.81,2.52,4.32Z"/><path class="cls-8" d="M1563.85,1042.69a49.48,49.48,0,0,0-4,9.69,45.86,45.86,0,0,0-1.11,4.88c-.16.94-.28,1.87-.4,2.81,0,.4,0,.44,0,.13a3.57,3.57,0,0,1-.11.47c.12-.22.12-.21,0,0a1.87,1.87,0,0,1,.66-.56,2.5,2.5,0,1,0,1.33,4.82c2.12-.49,2.86-2.53,3.11-4.45a44.39,44.39,0,0,1,1-5.2,43.38,43.38,0,0,1,3.88-10.11,2.5,2.5,0,1,0-4.31-2.52Z"/><path class="cls-8" d="M1539.33,1013c-6.6,15.31-15,30.12-18.22,46.65a2.57,2.57,0,0,0,1.75,3.08,2.53,2.53,0,0,0,3.07-1.75c3.14-16.12,11.28-30.53,17.72-45.46a2.58,2.58,0,0,0-.9-3.42,2.51,2.51,0,0,0-3.42.9Z"/><path class="cls-8" d="M1519.41,994.36a465.36,465.36,0,0,0-26.44,54.77,2.51,2.51,0,0,0,1.74,3.07,2.57,2.57,0,0,0,3.08-1.75,454.72,454.72,0,0,1,25.93-53.56c1.59-2.81-2.73-5.33-4.31-2.53Z"/><path class="cls-8" d="M1487.12,996.55a6.41,6.41,0,0,1,1.06-3.53c.77-1.47,1.6-2.91,2.4-4.36l5-9.07c1.56-2.82-2.76-5.34-4.32-2.52l-5.56,10.06c-1.88,3.4-4,6.7-3.43,10.75a2.53,2.53,0,0,0,3.08,1.75,2.58,2.58,0,0,0,1.75-3.08Z"/><path class="cls-8" d="M1459.19,949c-.44-2.83,1-5.72,2.29-8.15,1.54-3,3.14-6,4.71-8.93l9.64-18.26c1.5-2.84-2.81-5.37-4.31-2.52l-10.35,19.58c-1.65,3.12-3.41,6.21-4.91,9.42s-2.45,6.55-1.89,10.19a2.52,2.52,0,0,0,3.08,1.74,2.55,2.55,0,0,0,1.74-3.07Z"/><path class="cls-8" d="M1429.8,930.16a10.15,10.15,0,0,1,1.26-5.27c.91-1.95,1.84-3.89,2.77-5.82q2.73-5.6,5.59-11.12,5.86-11.25,12.34-22.16c1.65-2.78-2.67-5.29-4.31-2.53q-6.73,11.32-12.79,23-3,5.73-5.77,11.56c-1.8,3.75-4.5,8-4.09,12.32a2.57,2.57,0,0,0,2.5,2.5,2.52,2.52,0,0,0,2.5-2.5Z"/><path class="cls-8" d="M1395,919.77c1.5-5.25,5.21-9.5,8.51-13.72l11.71-14.9a2.59,2.59,0,0,0,0-3.54,2.53,2.53,0,0,0-3.54,0l-12.31,15.68c-3.67,4.67-7.53,9.34-9.19,15.15-.88,3.1,3.94,4.43,4.82,1.33Z"/><path class="cls-8" d="M1369.8,894.14c0-.48-.1.19,0-.08s.1-.34.15-.5c-.07.22-.12.23,0,0s.17-.31.27-.46.38-.45.07-.11l.3-.34c.25-.28.51-.54.79-.8,1.22-1.15,2.5-2.24,3.76-3.34q3.91-3.4,7.95-6.67a2.52,2.52,0,0,0,0-3.54,2.57,2.57,0,0,0-3.53,0q-4.36,3.53-8.57,7.21c-2.65,2.32-6.08,4.75-6.19,8.62a2.52,2.52,0,0,0,2.5,2.5,2.55,2.55,0,0,0,2.5-2.5Z"/><path class="cls-8" d="M1075,834.55c-1.5,5.43.77,10.84,3.82,15.29a74.27,74.27,0,0,0,9.54,11.18,81.71,81.71,0,0,0,39.34,21.2c3.13.68,4.47-4.14,1.33-4.82a77,77,0,0,1-44.09-27.64c-3-3.79-6.52-8.8-5.12-13.88.85-3.11-4-4.43-4.82-1.33Z"/><path class="cls-8" d="M1107.56,831.91a47.06,47.06,0,0,0,31.27,26.72c3.12.79,4.45-4,1.33-4.82a42.41,42.41,0,0,1-28.28-24.42,2.52,2.52,0,0,0-3.42-.9,2.57,2.57,0,0,0-.9,3.42Z"/><path class="cls-8" d="M1133.25,822a26.9,26.9,0,0,0,11.94,7.19,2.53,2.53,0,0,0,3.08-1.74,2.55,2.55,0,0,0-1.75-3.08c-.48-.14-1-.29-1.44-.46l-.75-.28a1.51,1.51,0,0,0-.33-.13l.19.08-.17-.07a24.11,24.11,0,0,1-2.76-1.44c-.43-.26-.85-.53-1.27-.82l-.65-.47a2.92,2.92,0,0,0-.28-.21c.14.07.33.26.08.06a26.72,26.72,0,0,1-2.35-2.17,2.5,2.5,0,0,0-3.54,3.54Z"/><path class="cls-8" d="M1112.67,907.2a157.53,157.53,0,0,0,27,9.84c3.12.81,4.45-4,1.33-4.83a149.37,149.37,0,0,1-25.85-9.33,2.57,2.57,0,0,0-3.42.89,2.54,2.54,0,0,0,.9,3.43Z"/><path class="cls-8" d="M1055.13,856.72c-2.49-7.93-8.24-15.16-8.63-23.66-.15-3.2-5.15-3.22-5,0,.42,9.16,6.15,16.49,8.8,25,1,3.06,5.79,1.75,4.83-1.33Z"/><path class="cls-8" d="M1203,747.31a367.79,367.79,0,0,0,139.35,122.52c2.87,1.44,5.4-2.88,2.52-4.32a361.46,361.46,0,0,1-60.89-38.6,368.12,368.12,0,0,1-52.24-50.07,357.74,357.74,0,0,1-24.42-32.05c-1.8-2.65-6.13-.15-4.32,2.52Z"/><path class="cls-8" d="M1184.15,634.39a63,63,0,0,0,2.6,18.6,2.5,2.5,0,1,0,4.83-1.33,58,58,0,0,1-2.43-17.27,2.5,2.5,0,1,0-5,0Z"/><path class="cls-8" d="M1625.38,906.06a774.71,774.71,0,0,1,84,1.33q11.83.84,23.65,2a2.5,2.5,0,0,0,0-5,773.9,773.9,0,0,0-83.94-3.92q-11.86.09-23.73.55c-3.21.12-3.22,5.12,0,5Z"/><path class="cls-8" d="M1820.88,845.57c16.2-14.58,43-23,62.36-9.54a31.12,31.12,0,0,1,10.56,12.65,2.52,2.52,0,0,0,3.42.9,2.56,2.56,0,0,0,.89-3.42c-4.63-10.24-14.52-17.56-25.26-20.36-12.72-3.31-26.26-.83-38,4.61A70.25,70.25,0,0,0,1817.35,842c-2.4,2.15,1.15,5.68,3.53,3.53Z"/><path class="cls-8" d="M1799.8,815.33c10.8-7.48,22.13-15,35.09-18.09,14.13-3.33,28.27.53,41.83,4.48,7,2,14.09,4.08,20.07,8.41a2.51,2.51,0,0,0,3.42-.9,2.56,2.56,0,0,0-.89-3.42c-5.57-4-12.19-6.23-18.73-8.16a191.34,191.34,0,0,0-22-5.57,64.12,64.12,0,0,0-22.32-.24,70.57,70.57,0,0,0-19.29,6.89A177.17,177.17,0,0,0,1797.27,811a2.57,2.57,0,0,0-.9,3.42,2.54,2.54,0,0,0,3.43.9Z"/><path class="cls-8" d="M1836.2,758.93a102.88,102.88,0,0,1,24.88-5.41c8.37-.74,17.36-.91,25.51,1.42a36.41,36.41,0,0,1,11.82,6,2.51,2.51,0,0,0,3.42-.9,2.56,2.56,0,0,0-.9-3.42c-7.17-5.38-15.65-7.72-24.5-8.28a107.3,107.3,0,0,0-41.56,5.8,2.57,2.57,0,0,0-1.75,3.08,2.53,2.53,0,0,0,3.08,1.74Z"/><path class="cls-8" d="M1814,731.9c5.7-1,11-3.51,16.47-5.45a172.68,172.68,0,0,1,16.67-5.16c10.85-2.72,22.09-4,33.25-2.65a59.76,59.76,0,0,1,17.44,4.82,2.58,2.58,0,0,0,3.42-.89,2.52,2.52,0,0,0-.89-3.42c-21.93-10-46.55-6.06-68.55,1.53-6.32,2.18-12.53,5.2-19.14,6.39a2.52,2.52,0,0,0-1.74,3.08,2.55,2.55,0,0,0,3.07,1.75Z"/><path class="cls-8" d="M1810.42,695.72l11.69-2a2.52,2.52,0,0,0,1.75-3.08,2.58,2.58,0,0,0-3.08-1.75l-11.69,2a2.51,2.51,0,0,0-1.75,3.08,2.58,2.58,0,0,0,3.08,1.75Z"/><path class="cls-8" d="M1862.48,584.88l35.11-2.27a2.5,2.5,0,0,0,0-5l-35.11,2.27a2.57,2.57,0,0,0-2.5,2.5,2.52,2.52,0,0,0,2.5,2.5Z"/><path class="cls-8" d="M1861.59,683.17c13.23-1.19,29.09-2.54,39.35,7.74,2.27,2.29,5.81-1.25,3.53-3.53-11.29-11.33-28.18-10.53-42.88-9.21a2.57,2.57,0,0,0-2.5,2.5,2.52,2.52,0,0,0,2.5,2.5Z"/><path class="cls-8" d="M1047.45,696.48a245,245,0,0,0,29.49-39.23c1.68-2.76-2.65-5.27-4.31-2.52a240.19,240.19,0,0,1-28.71,38.21c-2.18,2.37,1.35,5.91,3.53,3.54Z"/><path class="cls-8" d="M1093.64,633.72a42.76,42.76,0,0,1,11-26.41c2.17-2.37-1.36-5.92-3.53-3.53a48.17,48.17,0,0,0-12.48,29.94c-.16,3.22,4.84,3.21,5,0Z"/><path class="cls-6" d="M1080.75,626.56a179.47,179.47,0,0,1,17.84-50.6c1.51-2.83-2.8-5.36-4.32-2.52a184.09,184.09,0,0,0-18.35,51.79,2.57,2.57,0,0,0,1.75,3.07,2.53,2.53,0,0,0,3.08-1.74Z"/><path class="cls-6" d="M1044.25,672.85a43.65,43.65,0,0,0,13.82-14.34,2.5,2.5,0,1,0-4.31-2.52,45.59,45.59,0,0,1-2.59,3.86c-.13.17-.17.21,0,0l-.41.52-.71.85c-.51.59-1,1.16-1.57,1.72a38.9,38.9,0,0,1-3.32,3.09l-.86.69c.37-.29,0,0-.1.09l-.45.33c-.65.48-1.32.93-2,1.38a2.5,2.5,0,1,0,2.52,4.31Z"/><path class="cls-8" d="M1057.88,630c-2.2-11.33,3.36-22.48,8.43-32.25s10-19.3,16.32-28.17a86.48,86.48,0,0,1,11.81-13.6c2.36-2.2-1.18-5.73-3.54-3.54-8.29,7.69-14.74,17.12-20.35,26.89-2.84,5-5.49,10-8.13,15.09a119.78,119.78,0,0,0-7.5,16.57,39.6,39.6,0,0,0-1.86,20.34,2.51,2.51,0,0,0,3.07,1.75,2.56,2.56,0,0,0,1.75-3.08Z"/><path class="cls-8" d="M1742,559.36a47.11,47.11,0,0,1,29.44-14.84,2.57,2.57,0,0,0,2.5-2.5,2.51,2.51,0,0,0-2.5-2.5,52.35,52.35,0,0,0-33,16.31c-2.19,2.36,1.34,5.9,3.54,3.53Z"/><path class="cls-8" d="M1722.21,539.48a73.27,73.27,0,0,1,40.38-24.68c3.14-.7,1.81-5.52-1.33-4.82a77.66,77.66,0,0,0-42.58,26,2.56,2.56,0,0,0,0,3.54,2.52,2.52,0,0,0,3.53,0Z"/><path class="cls-8" d="M1729.46,492.59a67,67,0,0,1,36.31-14.87,2.56,2.56,0,0,0,2.5-2.5,2.52,2.52,0,0,0-2.5-2.5,72.73,72.73,0,0,0-39.84,16.33,2.52,2.52,0,0,0,0,3.54,2.55,2.55,0,0,0,3.53,0Z"/><path class="cls-8" d="M1729.81,463a118.42,118.42,0,0,1,42-17.86,114.8,114.8,0,0,1,12.66-1.94,2.57,2.57,0,0,0,2.5-2.5,2.52,2.52,0,0,0-2.5-2.5,123.48,123.48,0,0,0-45.6,13.55,120.6,120.6,0,0,0-11.56,6.93c-2.65,1.8-.15,6.13,2.52,4.32Z"/><path class="cls-6" d="M1754.94,572.07a48.12,48.12,0,0,1,16.07-7.71,2.5,2.5,0,0,0-1.33-4.82,52.86,52.86,0,0,0-17.27,8.22,2.57,2.57,0,0,0-.89,3.42,2.52,2.52,0,0,0,3.42.89Z"/><path class="cls-6" d="M1733.81,547.13a33.32,33.32,0,0,1,26.82-16.47c3.2-.15,3.22-5.15,0-5a38.47,38.47,0,0,0-31.13,19c-1.62,2.79,2.7,5.31,4.31,2.52Z"/><path class="cls-6" d="M1728,513.27a102.09,102.09,0,0,1,15-9.89,2.53,2.53,0,0,0,.9-3.42,2.56,2.56,0,0,0-3.43-.89,106,106,0,0,0-16,10.67,2.5,2.5,0,0,0,0,3.53,2.56,2.56,0,0,0,3.53,0Z"/><path class="cls-6" d="M1732.43,474.53a101,101,0,0,1,38.64-12.36,2.57,2.57,0,0,0,2.5-2.5,2.52,2.52,0,0,0-2.5-2.5,107.19,107.19,0,0,0-41.16,13c-2.81,1.57-.29,5.89,2.52,4.32Z"/><path class="cls-6" d="M1718.3,448.34a287.36,287.36,0,0,1,49.9-22.23,87.3,87.3,0,0,1,15.43-3.85,2.52,2.52,0,0,0,1.75-3.07,2.58,2.58,0,0,0-3.08-1.75c-9.27,1.3-18.2,4.64-26.9,8s-17.24,7.07-25.59,11.2q-7.12,3.51-14,7.41c-2.8,1.57-.28,5.89,2.53,4.31Z"/><path class="cls-6" d="M1693.77,448.62l9.64,4.49a2.7,2.7,0,0,0,1.93.26,2.51,2.51,0,0,0,.6-4.57l-9.65-4.49a2.75,2.75,0,0,0-1.93-.26,2.56,2.56,0,0,0-1.49,1.15,2.53,2.53,0,0,0,.9,3.42Z"/></svg>
